<svg xmlns="http://www.w3.org/2000/svg" xmlns:xlink="http://www.w3.org/1999/xlink" width="1884.74" height="327.92" viewBox="0 0 1884.74 327.92">
  <defs>
    <clipPath id="clip-pattern">
      <rect width="1884.74" height="327.92"/>
    </clipPath>
  </defs>
  <g id="pattern" clip-path="url(#clip-pattern)">
    <rect width="1884.74" height="327.92" fill="#fff"/>
    <g id="Group_2" data-name="Group 2">
      <g id="FliteWatch_Logo_-_Size_Medium_-_Black" data-name="FliteWatch Logo - Size Medium - Black" transform="translate(-190.084 -149.68)">
        <g id="Group_1" data-name="Group 1" transform="translate(222.08 181.68)">
          <path id="Path_1" data-name="Path 1" d="M421.415,377.62a6.053,6.053,0,0,1-.07,1.875l-11.92,2.835-80.24,9.07c-.98,1.465-5.835,3.47-9.585,3.3s-8.5-2.945-8.5-2.945L233.475,380.91l-11.07-3.32c-.1-.8-.255-.89-.325-1.69l11.9,3.26,77.055,10.01c5.835,3.37,8.9,3.235,8.9,3.235a19.887,19.887,0,0,0,8.37-3.34l79.5-8.385,13.11-2.945.495-.12Z" transform="translate(-222.08 -278.79)" fill="rgba(23,37,84,0.05)"/>
          <path id="Path_2" data-name="Path 2" d="M236.72,271.845s.555-6.06,1.515-8.78l-12.4-4.75,2.87-8.55,12.76,2.38a83.041,83.041,0,0,1,4.005-9.18l-10.44-8.9,4.345-7.81,13.29,4.955s2.92-4.035,4.535-5.725l-7.63-12.24,6.43-6.395L268.45,214.6s3.35-2.73,4.8-3.615l-4.645-13.87,7.76-5.06,10.525,11.12a61.742,61.742,0,0,1,5.735-2.38l-.26-14.5,8.67-2.675,6.145,13.16a77.416,77.416,0,0,1,8.06-1.1l2.555-14h8.72l2.7,13.885a82.973,82.973,0,0,1,8.6,1.045l5.13-13.22,8.12,1.86-.285,14.65s6.23,2.195,7.215,2.805l9.3-10.145,7.255,4.2-3.87,12.86s4.16,2.79,6.485,4.71L387.92,207l6.2,5.99-7.065,10.59a79.039,79.039,0,0,1,6.1,7.445l11.395-4.19,3.685,6.83-8.585,7.705s4.3,8.32,4.745,10.525l11.03-1.425,1.585,8.21-9.335,4.2a73.545,73.545,0,0,1,1.755,10.92l10.7,1.42v1.78l-80.165,5.485a17.416,17.416,0,0,0,1.255-6.225s12.485,2.245,12.87-7.98c0,0,.65-8.485-7.89-8.72,0,0-3.835-.275-5.78,1.835,0,0-4.3-10.7-14.3-11.415l-2.41-9.465,16.005-.835s1.6-1.985-1.365-1.9-33.79-.225-33.79-.225-3.515-.19-1.315,2.11l15.89.845-2.56,9.135s-8.43,1.035-13.31,11.63a10.122,10.122,0,0,0-6.39-1.655s-6.06-.035-7.49,8.145c0,0-.96,11.26,12.82,8.46a22.9,22.9,0,0,0,1.045,6.265l-80.85-8.145.19-1.955,14.135-.525Z" transform="translate(-222.235 -181.68)" fill="rgba(23,37,84,0.05)"/>
        </g>
      </g>
      <g id="FliteWatch_Logo_-_Size_Medium_-_Black-2" data-name="FliteWatch Logo - Size Medium - Black" transform="translate(41.282 -149.68)">
        <g id="Group_1-2" data-name="Group 1" transform="translate(222.08 181.68)">
          <path id="Path_1-2" data-name="Path 1" d="M421.415,377.62a6.053,6.053,0,0,1-.07,1.875l-11.92,2.835-80.24,9.07c-.98,1.465-5.835,3.47-9.585,3.3s-8.5-2.945-8.5-2.945L233.475,380.91l-11.07-3.32c-.1-.8-.255-.89-.325-1.69l11.9,3.26,77.055,10.01c5.835,3.37,8.9,3.235,8.9,3.235a19.887,19.887,0,0,0,8.37-3.34l79.5-8.385,13.11-2.945.495-.12Z" transform="translate(-222.08 -278.79)" fill="rgba(23,37,84,0.05)"/>
          <path id="Path_2-2" data-name="Path 2" d="M236.72,271.845s.555-6.06,1.515-8.78l-12.4-4.75,2.87-8.55,12.76,2.38a83.041,83.041,0,0,1,4.005-9.18l-10.44-8.9,4.345-7.81,13.29,4.955s2.92-4.035,4.535-5.725l-7.63-12.24,6.43-6.395L268.45,214.6s3.35-2.73,4.8-3.615l-4.645-13.87,7.76-5.06,10.525,11.12a61.742,61.742,0,0,1,5.735-2.38l-.26-14.5,8.67-2.675,6.145,13.16a77.416,77.416,0,0,1,8.06-1.1l2.555-14h8.72l2.7,13.885a82.973,82.973,0,0,1,8.6,1.045l5.13-13.22,8.12,1.86-.285,14.65s6.23,2.195,7.215,2.805l9.3-10.145,7.255,4.2-3.87,12.86s4.16,2.79,6.485,4.71L387.92,207l6.2,5.99-7.065,10.59a79.039,79.039,0,0,1,6.1,7.445l11.395-4.19,3.685,6.83-8.585,7.705s4.3,8.32,4.745,10.525l11.03-1.425,1.585,8.21-9.335,4.2a73.545,73.545,0,0,1,1.755,10.92l10.7,1.42v1.78l-80.165,5.485a17.416,17.416,0,0,0,1.255-6.225s12.485,2.245,12.87-7.98c0,0,.65-8.485-7.89-8.72,0,0-3.835-.275-5.78,1.835,0,0-4.3-10.7-14.3-11.415l-2.41-9.465,16.005-.835s1.6-1.985-1.365-1.9-33.79-.225-33.79-.225-3.515-.19-1.315,2.11l15.89.845-2.56,9.135s-8.43,1.035-13.31,11.63a10.122,10.122,0,0,0-6.39-1.655s-6.06-.035-7.49,8.145c0,0-.96,11.26,12.82,8.46a22.9,22.9,0,0,0,1.045,6.265l-80.85-8.145.19-1.955,14.135-.525Z" transform="translate(-222.235 -181.68)" fill="rgba(23,37,84,0.05)"/>
        </g>
      </g>
      <g id="FliteWatch_Logo_-_Size_Medium_-_Black-3" data-name="FliteWatch Logo - Size Medium - Black" transform="translate(272.648 -149.68)">
        <g id="Group_1-3" data-name="Group 1" transform="translate(222.08 181.68)">
          <path id="Path_1-3" data-name="Path 1" d="M421.415,377.62a6.053,6.053,0,0,1-.07,1.875l-11.92,2.835-80.24,9.07c-.98,1.465-5.835,3.47-9.585,3.3s-8.5-2.945-8.5-2.945L233.475,380.91l-11.07-3.32c-.1-.8-.255-.89-.325-1.69l11.9,3.26,77.055,10.01c5.835,3.37,8.9,3.235,8.9,3.235a19.887,19.887,0,0,0,8.37-3.34l79.5-8.385,13.11-2.945.495-.12Z" transform="translate(-222.08 -278.79)" fill="rgba(23,37,84,0.05)"/>
          <path id="Path_2-3" data-name="Path 2" d="M236.72,271.845s.555-6.06,1.515-8.78l-12.4-4.75,2.87-8.55,12.76,2.38a83.041,83.041,0,0,1,4.005-9.18l-10.44-8.9,4.345-7.81,13.29,4.955s2.92-4.035,4.535-5.725l-7.63-12.24,6.43-6.395L268.45,214.6s3.35-2.73,4.8-3.615l-4.645-13.87,7.76-5.06,10.525,11.12a61.742,61.742,0,0,1,5.735-2.38l-.26-14.5,8.67-2.675,6.145,13.16a77.416,77.416,0,0,1,8.06-1.1l2.555-14h8.72l2.7,13.885a82.973,82.973,0,0,1,8.6,1.045l5.13-13.22,8.12,1.86-.285,14.65s6.23,2.195,7.215,2.805l9.3-10.145,7.255,4.2-3.87,12.86s4.16,2.79,6.485,4.71L387.92,207l6.2,5.99-7.065,10.59a79.039,79.039,0,0,1,6.1,7.445l11.395-4.19,3.685,6.83-8.585,7.705s4.3,8.32,4.745,10.525l11.03-1.425,1.585,8.21-9.335,4.2a73.545,73.545,0,0,1,1.755,10.92l10.7,1.42v1.78l-80.165,5.485a17.416,17.416,0,0,0,1.255-6.225s12.485,2.245,12.87-7.98c0,0,.65-8.485-7.89-8.72,0,0-3.835-.275-5.78,1.835,0,0-4.3-10.7-14.3-11.415l-2.41-9.465,16.005-.835s1.6-1.985-1.365-1.9-33.79-.225-33.79-.225-3.515-.19-1.315,2.11l15.89.845-2.56,9.135s-8.43,1.035-13.31,11.63a10.122,10.122,0,0,0-6.39-1.655s-6.06-.035-7.49,8.145c0,0-.96,11.26,12.82,8.46a22.9,22.9,0,0,0,1.045,6.265l-80.85-8.145.19-1.955,14.135-.525Z" transform="translate(-222.235 -181.68)" fill="rgba(23,37,84,0.05)"/>
        </g>
      </g>
      <g id="FliteWatch_Logo_-_Size_Medium_-_Black-4" data-name="FliteWatch Logo - Size Medium - Black" transform="translate(504.916 -149.68)">
        <g id="Group_1-4" data-name="Group 1" transform="translate(222.08 181.68)">
          <path id="Path_1-4" data-name="Path 1" d="M421.415,377.62a6.053,6.053,0,0,1-.07,1.875l-11.92,2.835-80.24,9.07c-.98,1.465-5.835,3.47-9.585,3.3s-8.5-2.945-8.5-2.945L233.475,380.91l-11.07-3.32c-.1-.8-.255-.89-.325-1.69l11.9,3.26,77.055,10.01c5.835,3.37,8.9,3.235,8.9,3.235a19.887,19.887,0,0,0,8.37-3.34l79.5-8.385,13.11-2.945.495-.12Z" transform="translate(-222.08 -278.79)" fill="rgba(23,37,84,0.05)"/>
          <path id="Path_2-4" data-name="Path 2" d="M236.72,271.845s.555-6.06,1.515-8.78l-12.4-4.75,2.87-8.55,12.76,2.38a83.041,83.041,0,0,1,4.005-9.18l-10.44-8.9,4.345-7.81,13.29,4.955s2.92-4.035,4.535-5.725l-7.63-12.24,6.43-6.395L268.45,214.6s3.35-2.73,4.8-3.615l-4.645-13.87,7.76-5.06,10.525,11.12a61.742,61.742,0,0,1,5.735-2.38l-.26-14.5,8.67-2.675,6.145,13.16a77.416,77.416,0,0,1,8.06-1.1l2.555-14h8.72l2.7,13.885a82.973,82.973,0,0,1,8.6,1.045l5.13-13.22,8.12,1.86-.285,14.65s6.23,2.195,7.215,2.805l9.3-10.145,7.255,4.2-3.87,12.86s4.16,2.79,6.485,4.71L387.92,207l6.2,5.99-7.065,10.59a79.039,79.039,0,0,1,6.1,7.445l11.395-4.19,3.685,6.83-8.585,7.705s4.3,8.32,4.745,10.525l11.03-1.425,1.585,8.21-9.335,4.2a73.545,73.545,0,0,1,1.755,10.92l10.7,1.42v1.78l-80.165,5.485a17.416,17.416,0,0,0,1.255-6.225s12.485,2.245,12.87-7.98c0,0,.65-8.485-7.89-8.72,0,0-3.835-.275-5.78,1.835,0,0-4.3-10.7-14.3-11.415l-2.41-9.465,16.005-.835s1.6-1.985-1.365-1.9-33.79-.225-33.79-.225-3.515-.19-1.315,2.11l15.89.845-2.56,9.135s-8.43,1.035-13.31,11.63a10.122,10.122,0,0,0-6.39-1.655s-6.06-.035-7.49,8.145c0,0-.96,11.26,12.82,8.46a22.9,22.9,0,0,0,1.045,6.265l-80.85-8.145.19-1.955,14.135-.525Z" transform="translate(-222.235 -181.68)" fill="rgba(23,37,84,0.05)"/>
        </g>
      </g>
      <g id="FliteWatch_Logo_-_Size_Medium_-_Black-5" data-name="FliteWatch Logo - Size Medium - Black" transform="translate(736.282 -149.68)">
        <g id="Group_1-5" data-name="Group 1" transform="translate(222.08 181.68)">
          <path id="Path_1-5" data-name="Path 1" d="M421.415,377.62a6.053,6.053,0,0,1-.07,1.875l-11.92,2.835-80.24,9.07c-.98,1.465-5.835,3.47-9.585,3.3s-8.5-2.945-8.5-2.945L233.475,380.91l-11.07-3.32c-.1-.8-.255-.89-.325-1.69l11.9,3.26,77.055,10.01c5.835,3.37,8.9,3.235,8.9,3.235a19.887,19.887,0,0,0,8.37-3.34l79.5-8.385,13.11-2.945.495-.12Z" transform="translate(-222.08 -278.79)" fill="rgba(23,37,84,0.05)"/>
          <path id="Path_2-5" data-name="Path 2" d="M236.72,271.845s.555-6.06,1.515-8.78l-12.4-4.75,2.87-8.55,12.76,2.38a83.041,83.041,0,0,1,4.005-9.18l-10.44-8.9,4.345-7.81,13.29,4.955s2.92-4.035,4.535-5.725l-7.63-12.24,6.43-6.395L268.45,214.6s3.35-2.73,4.8-3.615l-4.645-13.87,7.76-5.06,10.525,11.12a61.742,61.742,0,0,1,5.735-2.38l-.26-14.5,8.67-2.675,6.145,13.16a77.416,77.416,0,0,1,8.06-1.1l2.555-14h8.72l2.7,13.885a82.973,82.973,0,0,1,8.6,1.045l5.13-13.22,8.12,1.86-.285,14.65s6.23,2.195,7.215,2.805l9.3-10.145,7.255,4.2-3.87,12.86s4.16,2.79,6.485,4.71L387.92,207l6.2,5.99-7.065,10.59a79.039,79.039,0,0,1,6.1,7.445l11.395-4.19,3.685,6.83-8.585,7.705s4.3,8.32,4.745,10.525l11.03-1.425,1.585,8.21-9.335,4.2a73.545,73.545,0,0,1,1.755,10.92l10.7,1.42v1.78l-80.165,5.485a17.416,17.416,0,0,0,1.255-6.225s12.485,2.245,12.87-7.98c0,0,.65-8.485-7.89-8.72,0,0-3.835-.275-5.78,1.835,0,0-4.3-10.7-14.3-11.415l-2.41-9.465,16.005-.835s1.6-1.985-1.365-1.9-33.79-.225-33.79-.225-3.515-.19-1.315,2.11l15.89.845-2.56,9.135s-8.43,1.035-13.31,11.63a10.122,10.122,0,0,0-6.39-1.655s-6.06-.035-7.49,8.145c0,0-.96,11.26,12.82,8.46a22.9,22.9,0,0,0,1.045,6.265l-80.85-8.145.19-1.955,14.135-.525Z" transform="translate(-222.235 -181.68)" fill="rgba(23,37,84,0.05)"/>
        </g>
      </g>
      <g id="FliteWatch_Logo_-_Size_Medium_-_Black-6" data-name="FliteWatch Logo - Size Medium - Black" transform="translate(967.648 -149.68)">
        <g id="Group_1-6" data-name="Group 1" transform="translate(222.08 181.68)">
          <path id="Path_1-6" data-name="Path 1" d="M421.415,377.62a6.053,6.053,0,0,1-.07,1.875l-11.92,2.835-80.24,9.07c-.98,1.465-5.835,3.47-9.585,3.3s-8.5-2.945-8.5-2.945L233.475,380.91l-11.07-3.32c-.1-.8-.255-.89-.325-1.69l11.9,3.26,77.055,10.01c5.835,3.37,8.9,3.235,8.9,3.235a19.887,19.887,0,0,0,8.37-3.34l79.5-8.385,13.11-2.945.495-.12Z" transform="translate(-222.08 -278.79)" fill="rgba(23,37,84,0.05)"/>
          <path id="Path_2-6" data-name="Path 2" d="M236.72,271.845s.555-6.06,1.515-8.78l-12.4-4.75,2.87-8.55,12.76,2.38a83.041,83.041,0,0,1,4.005-9.18l-10.44-8.9,4.345-7.81,13.29,4.955s2.92-4.035,4.535-5.725l-7.63-12.24,6.43-6.395L268.45,214.6s3.35-2.73,4.8-3.615l-4.645-13.87,7.76-5.06,10.525,11.12a61.742,61.742,0,0,1,5.735-2.38l-.26-14.5,8.67-2.675,6.145,13.16a77.416,77.416,0,0,1,8.06-1.1l2.555-14h8.72l2.7,13.885a82.973,82.973,0,0,1,8.6,1.045l5.13-13.22,8.12,1.86-.285,14.65s6.23,2.195,7.215,2.805l9.3-10.145,7.255,4.2-3.87,12.86s4.16,2.79,6.485,4.71L387.92,207l6.2,5.99-7.065,10.59a79.039,79.039,0,0,1,6.1,7.445l11.395-4.19,3.685,6.83-8.585,7.705s4.3,8.32,4.745,10.525l11.03-1.425,1.585,8.21-9.335,4.2a73.545,73.545,0,0,1,1.755,10.92l10.7,1.42v1.78l-80.165,5.485a17.416,17.416,0,0,0,1.255-6.225s12.485,2.245,12.87-7.98c0,0,.65-8.485-7.89-8.72,0,0-3.835-.275-5.78,1.835,0,0-4.3-10.7-14.3-11.415l-2.41-9.465,16.005-.835s1.6-1.985-1.365-1.9-33.79-.225-33.79-.225-3.515-.19-1.315,2.11l15.89.845-2.56,9.135s-8.43,1.035-13.31,11.63a10.122,10.122,0,0,0-6.39-1.655s-6.06-.035-7.49,8.145c0,0-.96,11.26,12.82,8.46a22.9,22.9,0,0,0,1.045,6.265l-80.85-8.145.19-1.955,14.135-.525Z" transform="translate(-222.235 -181.68)" fill="rgba(23,37,84,0.05)"/>
        </g>
      </g>
      <g id="FliteWatch_Logo_-_Size_Medium_-_Black-7" data-name="FliteWatch Logo - Size Medium - Black" transform="translate(1199.916 -149.68)">
        <g id="Group_1-7" data-name="Group 1" transform="translate(222.08 181.68)">
          <path id="Path_1-7" data-name="Path 1" d="M421.415,377.62a6.053,6.053,0,0,1-.07,1.875l-11.92,2.835-80.24,9.07c-.98,1.465-5.835,3.47-9.585,3.3s-8.5-2.945-8.5-2.945L233.475,380.91l-11.07-3.32c-.1-.8-.255-.89-.325-1.69l11.9,3.26,77.055,10.01c5.835,3.37,8.9,3.235,8.9,3.235a19.887,19.887,0,0,0,8.37-3.34l79.5-8.385,13.11-2.945.495-.12Z" transform="translate(-222.08 -278.79)" fill="rgba(23,37,84,0.05)"/>
          <path id="Path_2-7" data-name="Path 2" d="M236.72,271.845s.555-6.06,1.515-8.78l-12.4-4.75,2.87-8.55,12.76,2.38a83.041,83.041,0,0,1,4.005-9.18l-10.44-8.9,4.345-7.81,13.29,4.955s2.92-4.035,4.535-5.725l-7.63-12.24,6.43-6.395L268.45,214.6s3.35-2.73,4.8-3.615l-4.645-13.87,7.76-5.06,10.525,11.12a61.742,61.742,0,0,1,5.735-2.38l-.26-14.5,8.67-2.675,6.145,13.16a77.416,77.416,0,0,1,8.06-1.1l2.555-14h8.72l2.7,13.885a82.973,82.973,0,0,1,8.6,1.045l5.13-13.22,8.12,1.86-.285,14.65s6.23,2.195,7.215,2.805l9.3-10.145,7.255,4.2-3.87,12.86s4.16,2.79,6.485,4.71L387.92,207l6.2,5.99-7.065,10.59a79.039,79.039,0,0,1,6.1,7.445l11.395-4.19,3.685,6.83-8.585,7.705s4.3,8.32,4.745,10.525l11.03-1.425,1.585,8.21-9.335,4.2a73.545,73.545,0,0,1,1.755,10.92l10.7,1.42v1.78l-80.165,5.485a17.416,17.416,0,0,0,1.255-6.225s12.485,2.245,12.87-7.98c0,0,.65-8.485-7.89-8.72,0,0-3.835-.275-5.78,1.835,0,0-4.3-10.7-14.3-11.415l-2.41-9.465,16.005-.835s1.6-1.985-1.365-1.9-33.79-.225-33.79-.225-3.515-.19-1.315,2.11l15.89.845-2.56,9.135s-8.43,1.035-13.31,11.63a10.122,10.122,0,0,0-6.39-1.655s-6.06-.035-7.49,8.145c0,0-.96,11.26,12.82,8.46a22.9,22.9,0,0,0,1.045,6.265l-80.85-8.145.19-1.955,14.135-.525Z" transform="translate(-222.235 -181.68)" fill="rgba(23,37,84,0.05)"/>
        </g>
      </g>
      <g id="FliteWatch_Logo_-_Size_Medium_-_Black-8" data-name="FliteWatch Logo - Size Medium - Black" transform="translate(1431.282 -149.68)">
        <g id="Group_1-8" data-name="Group 1" transform="translate(222.08 181.68)">
          <path id="Path_1-8" data-name="Path 1" d="M421.415,377.62a6.053,6.053,0,0,1-.07,1.875l-11.92,2.835-80.24,9.07c-.98,1.465-5.835,3.47-9.585,3.3s-8.5-2.945-8.5-2.945L233.475,380.91l-11.07-3.32c-.1-.8-.255-.89-.325-1.69l11.9,3.26,77.055,10.01c5.835,3.37,8.9,3.235,8.9,3.235a19.887,19.887,0,0,0,8.37-3.34l79.5-8.385,13.11-2.945.495-.12Z" transform="translate(-222.08 -278.79)" fill="rgba(23,37,84,0.05)"/>
          <path id="Path_2-8" data-name="Path 2" d="M236.72,271.845s.555-6.06,1.515-8.78l-12.4-4.75,2.87-8.55,12.76,2.38a83.041,83.041,0,0,1,4.005-9.18l-10.44-8.9,4.345-7.81,13.29,4.955s2.92-4.035,4.535-5.725l-7.63-12.24,6.43-6.395L268.45,214.6s3.35-2.73,4.8-3.615l-4.645-13.87,7.76-5.06,10.525,11.12a61.742,61.742,0,0,1,5.735-2.38l-.26-14.5,8.67-2.675,6.145,13.16a77.416,77.416,0,0,1,8.06-1.1l2.555-14h8.72l2.7,13.885a82.973,82.973,0,0,1,8.6,1.045l5.13-13.22,8.12,1.86-.285,14.65s6.23,2.195,7.215,2.805l9.3-10.145,7.255,4.2-3.87,12.86s4.16,2.79,6.485,4.71L387.92,207l6.2,5.99-7.065,10.59a79.039,79.039,0,0,1,6.1,7.445l11.395-4.19,3.685,6.83-8.585,7.705s4.3,8.32,4.745,10.525l11.03-1.425,1.585,8.21-9.335,4.2a73.545,73.545,0,0,1,1.755,10.92l10.7,1.42v1.78l-80.165,5.485a17.416,17.416,0,0,0,1.255-6.225s12.485,2.245,12.87-7.98c0,0,.65-8.485-7.89-8.72,0,0-3.835-.275-5.78,1.835,0,0-4.3-10.7-14.3-11.415l-2.41-9.465,16.005-.835s1.6-1.985-1.365-1.9-33.79-.225-33.79-.225-3.515-.19-1.315,2.11l15.89.845-2.56,9.135s-8.43,1.035-13.31,11.63a10.122,10.122,0,0,0-6.39-1.655s-6.06-.035-7.49,8.145c0,0-.96,11.26,12.82,8.46a22.9,22.9,0,0,0,1.045,6.265l-80.85-8.145.19-1.955,14.135-.525Z" transform="translate(-222.235 -181.68)" fill="rgba(23,37,84,0.05)"/>
        </g>
      </g>
    </g>
    <g id="Group_3" data-name="Group 3">
      <g id="FliteWatch_Logo_-_Size_Medium_-_Black-9" data-name="FliteWatch Logo - Size Medium - Black" transform="translate(-305.771 -1.68)">
        <g id="Group_1-9" data-name="Group 1" transform="translate(222.08 181.68)">
          <path id="Path_1-9" data-name="Path 1" d="M421.415,377.62a6.053,6.053,0,0,1-.07,1.875l-11.92,2.835-80.24,9.07c-.98,1.465-5.835,3.47-9.585,3.3s-8.5-2.945-8.5-2.945L233.475,380.91l-11.07-3.32c-.1-.8-.255-.89-.325-1.69l11.9,3.26,77.055,10.01c5.835,3.37,8.9,3.235,8.9,3.235a19.887,19.887,0,0,0,8.37-3.34l79.5-8.385,13.11-2.945.495-.12Z" transform="translate(-222.08 -278.79)" fill="rgba(23,37,84,0.05)"/>
          <path id="Path_2-9" data-name="Path 2" d="M236.72,271.845s.555-6.06,1.515-8.78l-12.4-4.75,2.87-8.55,12.76,2.38a83.041,83.041,0,0,1,4.005-9.18l-10.44-8.9,4.345-7.81,13.29,4.955s2.92-4.035,4.535-5.725l-7.63-12.24,6.43-6.395L268.45,214.6s3.35-2.73,4.8-3.615l-4.645-13.87,7.76-5.06,10.525,11.12a61.742,61.742,0,0,1,5.735-2.38l-.26-14.5,8.67-2.675,6.145,13.16a77.416,77.416,0,0,1,8.06-1.1l2.555-14h8.72l2.7,13.885a82.973,82.973,0,0,1,8.6,1.045l5.13-13.22,8.12,1.86-.285,14.65s6.23,2.195,7.215,2.805l9.3-10.145,7.255,4.2-3.87,12.86s4.16,2.79,6.485,4.71L387.92,207l6.2,5.99-7.065,10.59a79.039,79.039,0,0,1,6.1,7.445l11.395-4.19,3.685,6.83-8.585,7.705s4.3,8.32,4.745,10.525l11.03-1.425,1.585,8.21-9.335,4.2a73.545,73.545,0,0,1,1.755,10.92l10.7,1.42v1.78l-80.165,5.485a17.416,17.416,0,0,0,1.255-6.225s12.485,2.245,12.87-7.98c0,0,.65-8.485-7.89-8.72,0,0-3.835-.275-5.78,1.835,0,0-4.3-10.7-14.3-11.415l-2.41-9.465,16.005-.835s1.6-1.985-1.365-1.9-33.79-.225-33.79-.225-3.515-.19-1.315,2.11l15.89.845-2.56,9.135s-8.43,1.035-13.31,11.63a10.122,10.122,0,0,0-6.39-1.655s-6.06-.035-7.49,8.145c0,0-.96,11.26,12.82,8.46a22.9,22.9,0,0,0,1.045,6.265l-80.85-8.145.19-1.955,14.135-.525Z" transform="translate(-222.235 -181.68)" fill="rgba(23,37,84,0.05)"/>
        </g>
      </g>
      <g id="FliteWatch_Logo_-_Size_Medium_-_Black-10" data-name="FliteWatch Logo - Size Medium - Black" transform="translate(-74.397 -1.68)">
        <g id="Group_1-10" data-name="Group 1" transform="translate(222.08 181.68)">
          <path id="Path_1-10" data-name="Path 1" d="M421.415,377.62a6.053,6.053,0,0,1-.07,1.875l-11.92,2.835-80.24,9.07c-.98,1.465-5.835,3.47-9.585,3.3s-8.5-2.945-8.5-2.945L233.475,380.91l-11.07-3.32c-.1-.8-.255-.89-.325-1.69l11.9,3.26,77.055,10.01c5.835,3.37,8.9,3.235,8.9,3.235a19.887,19.887,0,0,0,8.37-3.34l79.5-8.385,13.11-2.945.495-.12Z" transform="translate(-222.08 -278.79)" fill="rgba(23,37,84,0.05)"/>
          <path id="Path_2-10" data-name="Path 2" d="M236.72,271.845s.555-6.06,1.515-8.78l-12.4-4.75,2.87-8.55,12.76,2.38a83.041,83.041,0,0,1,4.005-9.18l-10.44-8.9,4.345-7.81,13.29,4.955s2.92-4.035,4.535-5.725l-7.63-12.24,6.43-6.395L268.45,214.6s3.35-2.73,4.8-3.615l-4.645-13.87,7.76-5.06,10.525,11.12a61.742,61.742,0,0,1,5.735-2.38l-.26-14.5,8.67-2.675,6.145,13.16a77.416,77.416,0,0,1,8.06-1.1l2.555-14h8.72l2.7,13.885a82.973,82.973,0,0,1,8.6,1.045l5.13-13.22,8.12,1.86-.285,14.65s6.23,2.195,7.215,2.805l9.3-10.145,7.255,4.2-3.87,12.86s4.16,2.79,6.485,4.71L387.92,207l6.2,5.99-7.065,10.59a79.039,79.039,0,0,1,6.1,7.445l11.395-4.19,3.685,6.83-8.585,7.705s4.3,8.32,4.745,10.525l11.03-1.425,1.585,8.21-9.335,4.2a73.545,73.545,0,0,1,1.755,10.92l10.7,1.42v1.78l-80.165,5.485a17.416,17.416,0,0,0,1.255-6.225s12.485,2.245,12.87-7.98c0,0,.65-8.485-7.89-8.72,0,0-3.835-.275-5.78,1.835,0,0-4.3-10.7-14.3-11.415l-2.41-9.465,16.005-.835s1.6-1.985-1.365-1.9-33.79-.225-33.79-.225-3.515-.19-1.315,2.11l15.89.845-2.56,9.135s-8.43,1.035-13.31,11.63a10.122,10.122,0,0,0-6.39-1.655s-6.06-.035-7.49,8.145c0,0-.96,11.26,12.82,8.46a22.9,22.9,0,0,0,1.045,6.265l-80.85-8.145.19-1.955,14.135-.525Z" transform="translate(-222.235 -181.68)" fill="rgba(23,37,84,0.05)"/>
        </g>
      </g>
      <g id="FliteWatch_Logo_-_Size_Medium_-_Black-11" data-name="FliteWatch Logo - Size Medium - Black" transform="translate(156.977 -1.68)">
        <g id="Group_1-11" data-name="Group 1" transform="translate(222.08 181.68)">
          <path id="Path_1-11" data-name="Path 1" d="M421.415,377.62a6.053,6.053,0,0,1-.07,1.875l-11.92,2.835-80.24,9.07c-.98,1.465-5.835,3.47-9.585,3.3s-8.5-2.945-8.5-2.945L233.475,380.91l-11.07-3.32c-.1-.8-.255-.89-.325-1.69l11.9,3.26,77.055,10.01c5.835,3.37,8.9,3.235,8.9,3.235a19.887,19.887,0,0,0,8.37-3.34l79.5-8.385,13.11-2.945.495-.12Z" transform="translate(-222.08 -278.79)" fill="rgba(23,37,84,0.05)"/>
          <path id="Path_2-11" data-name="Path 2" d="M236.72,271.845s.555-6.06,1.515-8.78l-12.4-4.75,2.87-8.55,12.76,2.38a83.041,83.041,0,0,1,4.005-9.18l-10.44-8.9,4.345-7.81,13.29,4.955s2.92-4.035,4.535-5.725l-7.63-12.24,6.43-6.395L268.45,214.6s3.35-2.73,4.8-3.615l-4.645-13.87,7.76-5.06,10.525,11.12a61.742,61.742,0,0,1,5.735-2.38l-.26-14.5,8.67-2.675,6.145,13.16a77.416,77.416,0,0,1,8.06-1.1l2.555-14h8.72l2.7,13.885a82.973,82.973,0,0,1,8.6,1.045l5.13-13.22,8.12,1.86-.285,14.65s6.23,2.195,7.215,2.805l9.3-10.145,7.255,4.2-3.87,12.86s4.16,2.79,6.485,4.71L387.92,207l6.2,5.99-7.065,10.59a79.039,79.039,0,0,1,6.1,7.445l11.395-4.19,3.685,6.83-8.585,7.705s4.3,8.32,4.745,10.525l11.03-1.425,1.585,8.21-9.335,4.2a73.545,73.545,0,0,1,1.755,10.92l10.7,1.42v1.78l-80.165,5.485a17.416,17.416,0,0,0,1.255-6.225s12.485,2.245,12.87-7.98c0,0,.65-8.485-7.89-8.72,0,0-3.835-.275-5.78,1.835,0,0-4.3-10.7-14.3-11.415l-2.41-9.465,16.005-.835s1.6-1.985-1.365-1.9-33.79-.225-33.79-.225-3.515-.19-1.315,2.11l15.89.845-2.56,9.135s-8.43,1.035-13.31,11.63a10.122,10.122,0,0,0-6.39-1.655s-6.06-.035-7.49,8.145c0,0-.96,11.26,12.82,8.46a22.9,22.9,0,0,0,1.045,6.265l-80.85-8.145.19-1.955,14.135-.525Z" transform="translate(-222.235 -181.68)" fill="rgba(23,37,84,0.05)"/>
        </g>
      </g>
      <g id="FliteWatch_Logo_-_Size_Medium_-_Black-12" data-name="FliteWatch Logo - Size Medium - Black" transform="translate(389.229 -1.68)">
        <g id="Group_1-12" data-name="Group 1" transform="translate(222.08 181.68)">
          <path id="Path_1-12" data-name="Path 1" d="M421.415,377.62a6.053,6.053,0,0,1-.07,1.875l-11.92,2.835-80.24,9.07c-.98,1.465-5.835,3.47-9.585,3.3s-8.5-2.945-8.5-2.945L233.475,380.91l-11.07-3.32c-.1-.8-.255-.89-.325-1.69l11.9,3.26,77.055,10.01c5.835,3.37,8.9,3.235,8.9,3.235a19.887,19.887,0,0,0,8.37-3.34l79.5-8.385,13.11-2.945.495-.12Z" transform="translate(-222.08 -278.79)" fill="rgba(23,37,84,0.05)"/>
          <path id="Path_2-12" data-name="Path 2" d="M236.72,271.845s.555-6.06,1.515-8.78l-12.4-4.75,2.87-8.55,12.76,2.38a83.041,83.041,0,0,1,4.005-9.18l-10.44-8.9,4.345-7.81,13.29,4.955s2.92-4.035,4.535-5.725l-7.63-12.24,6.43-6.395L268.45,214.6s3.35-2.73,4.8-3.615l-4.645-13.87,7.76-5.06,10.525,11.12a61.742,61.742,0,0,1,5.735-2.38l-.26-14.5,8.67-2.675,6.145,13.16a77.416,77.416,0,0,1,8.06-1.1l2.555-14h8.72l2.7,13.885a82.973,82.973,0,0,1,8.6,1.045l5.13-13.22,8.12,1.86-.285,14.65s6.23,2.195,7.215,2.805l9.3-10.145,7.255,4.2-3.87,12.86s4.16,2.79,6.485,4.71L387.92,207l6.2,5.99-7.065,10.59a79.039,79.039,0,0,1,6.1,7.445l11.395-4.19,3.685,6.83-8.585,7.705s4.3,8.32,4.745,10.525l11.03-1.425,1.585,8.21-9.335,4.2a73.545,73.545,0,0,1,1.755,10.92l10.7,1.42v1.78l-80.165,5.485a17.416,17.416,0,0,0,1.255-6.225s12.485,2.245,12.87-7.98c0,0,.65-8.485-7.89-8.72,0,0-3.835-.275-5.78,1.835,0,0-4.3-10.7-14.3-11.415l-2.41-9.465,16.005-.835s1.6-1.985-1.365-1.9-33.79-.225-33.79-.225-3.515-.19-1.315,2.11l15.89.845-2.56,9.135s-8.43,1.035-13.31,11.63a10.122,10.122,0,0,0-6.39-1.655s-6.06-.035-7.49,8.145c0,0-.96,11.26,12.82,8.46a22.9,22.9,0,0,0,1.045,6.265l-80.85-8.145.19-1.955,14.135-.525Z" transform="translate(-222.235 -181.68)" fill="rgba(23,37,84,0.05)"/>
        </g>
      </g>
      <g id="FliteWatch_Logo_-_Size_Medium_-_Black-13" data-name="FliteWatch Logo - Size Medium - Black" transform="translate(620.603 -1.68)">
        <g id="Group_1-13" data-name="Group 1" transform="translate(222.08 181.68)">
          <path id="Path_1-13" data-name="Path 1" d="M421.415,377.62a6.053,6.053,0,0,1-.07,1.875l-11.92,2.835-80.24,9.07c-.98,1.465-5.835,3.47-9.585,3.3s-8.5-2.945-8.5-2.945L233.475,380.91l-11.07-3.32c-.1-.8-.255-.89-.325-1.69l11.9,3.26,77.055,10.01c5.835,3.37,8.9,3.235,8.9,3.235a19.887,19.887,0,0,0,8.37-3.34l79.5-8.385,13.11-2.945.495-.12Z" transform="translate(-222.08 -278.79)" fill="rgba(23,37,84,0.05)"/>
          <path id="Path_2-13" data-name="Path 2" d="M236.72,271.845s.555-6.06,1.515-8.78l-12.4-4.75,2.87-8.55,12.76,2.38a83.041,83.041,0,0,1,4.005-9.18l-10.44-8.9,4.345-7.81,13.29,4.955s2.92-4.035,4.535-5.725l-7.63-12.24,6.43-6.395L268.45,214.6s3.35-2.73,4.8-3.615l-4.645-13.87,7.76-5.06,10.525,11.12a61.742,61.742,0,0,1,5.735-2.38l-.26-14.5,8.67-2.675,6.145,13.16a77.416,77.416,0,0,1,8.06-1.1l2.555-14h8.72l2.7,13.885a82.973,82.973,0,0,1,8.6,1.045l5.13-13.22,8.12,1.86-.285,14.65s6.23,2.195,7.215,2.805l9.3-10.145,7.255,4.2-3.87,12.86s4.16,2.79,6.485,4.71L387.92,207l6.2,5.99-7.065,10.59a79.039,79.039,0,0,1,6.1,7.445l11.395-4.19,3.685,6.83-8.585,7.705s4.3,8.32,4.745,10.525l11.03-1.425,1.585,8.21-9.335,4.2a73.545,73.545,0,0,1,1.755,10.92l10.7,1.42v1.78l-80.165,5.485a17.416,17.416,0,0,0,1.255-6.225s12.485,2.245,12.87-7.98c0,0,.65-8.485-7.89-8.72,0,0-3.835-.275-5.78,1.835,0,0-4.3-10.7-14.3-11.415l-2.41-9.465,16.005-.835s1.6-1.985-1.365-1.9-33.79-.225-33.79-.225-3.515-.19-1.315,2.11l15.89.845-2.56,9.135s-8.43,1.035-13.31,11.63a10.122,10.122,0,0,0-6.39-1.655s-6.06-.035-7.49,8.145c0,0-.96,11.26,12.82,8.46a22.9,22.9,0,0,0,1.045,6.265l-80.85-8.145.19-1.955,14.135-.525Z" transform="translate(-222.235 -181.68)" fill="rgba(23,37,84,0.05)"/>
        </g>
      </g>
      <g id="FliteWatch_Logo_-_Size_Medium_-_Black-14" data-name="FliteWatch Logo - Size Medium - Black" transform="translate(851.977 -1.68)">
        <g id="Group_1-14" data-name="Group 1" transform="translate(222.08 181.68)">
          <path id="Path_1-14" data-name="Path 1" d="M421.415,377.62a6.053,6.053,0,0,1-.07,1.875l-11.92,2.835-80.24,9.07c-.98,1.465-5.835,3.47-9.585,3.3s-8.5-2.945-8.5-2.945L233.475,380.91l-11.07-3.32c-.1-.8-.255-.89-.325-1.69l11.9,3.26,77.055,10.01c5.835,3.37,8.9,3.235,8.9,3.235a19.887,19.887,0,0,0,8.37-3.34l79.5-8.385,13.11-2.945.495-.12Z" transform="translate(-222.08 -278.79)" fill="rgba(23,37,84,0.05)"/>
          <path id="Path_2-14" data-name="Path 2" d="M236.72,271.845s.555-6.06,1.515-8.78l-12.4-4.75,2.87-8.55,12.76,2.38a83.041,83.041,0,0,1,4.005-9.18l-10.44-8.9,4.345-7.81,13.29,4.955s2.92-4.035,4.535-5.725l-7.63-12.24,6.43-6.395L268.45,214.6s3.35-2.73,4.8-3.615l-4.645-13.87,7.76-5.06,10.525,11.12a61.742,61.742,0,0,1,5.735-2.38l-.26-14.5,8.67-2.675,6.145,13.16a77.416,77.416,0,0,1,8.06-1.1l2.555-14h8.72l2.7,13.885a82.973,82.973,0,0,1,8.6,1.045l5.13-13.22,8.12,1.86-.285,14.65s6.23,2.195,7.215,2.805l9.3-10.145,7.255,4.2-3.87,12.86s4.16,2.79,6.485,4.71L387.92,207l6.2,5.99-7.065,10.59a79.039,79.039,0,0,1,6.1,7.445l11.395-4.19,3.685,6.83-8.585,7.705s4.3,8.32,4.745,10.525l11.03-1.425,1.585,8.21-9.335,4.2a73.545,73.545,0,0,1,1.755,10.92l10.7,1.42v1.78l-80.165,5.485a17.416,17.416,0,0,0,1.255-6.225s12.485,2.245,12.87-7.98c0,0,.65-8.485-7.89-8.72,0,0-3.835-.275-5.78,1.835,0,0-4.3-10.7-14.3-11.415l-2.41-9.465,16.005-.835s1.6-1.985-1.365-1.9-33.79-.225-33.79-.225-3.515-.19-1.315,2.11l15.89.845-2.56,9.135s-8.43,1.035-13.31,11.63a10.122,10.122,0,0,0-6.39-1.655s-6.06-.035-7.49,8.145c0,0-.96,11.26,12.82,8.46a22.9,22.9,0,0,0,1.045,6.265l-80.85-8.145.19-1.955,14.135-.525Z" transform="translate(-222.235 -181.68)" fill="rgba(23,37,84,0.05)"/>
        </g>
      </g>
      <g id="FliteWatch_Logo_-_Size_Medium_-_Black-15" data-name="FliteWatch Logo - Size Medium - Black" transform="translate(1084.229 -1.68)">
        <g id="Group_1-15" data-name="Group 1" transform="translate(222.08 181.68)">
          <path id="Path_1-15" data-name="Path 1" d="M421.415,377.62a6.053,6.053,0,0,1-.07,1.875l-11.92,2.835-80.24,9.07c-.98,1.465-5.835,3.47-9.585,3.3s-8.5-2.945-8.5-2.945L233.475,380.91l-11.07-3.32c-.1-.8-.255-.89-.325-1.69l11.9,3.26,77.055,10.01c5.835,3.37,8.9,3.235,8.9,3.235a19.887,19.887,0,0,0,8.37-3.34l79.5-8.385,13.11-2.945.495-.12Z" transform="translate(-222.08 -278.79)" fill="rgba(23,37,84,0.05)"/>
          <path id="Path_2-15" data-name="Path 2" d="M236.72,271.845s.555-6.06,1.515-8.78l-12.4-4.75,2.87-8.55,12.76,2.38a83.041,83.041,0,0,1,4.005-9.18l-10.44-8.9,4.345-7.81,13.29,4.955s2.92-4.035,4.535-5.725l-7.63-12.24,6.43-6.395L268.45,214.6s3.35-2.73,4.8-3.615l-4.645-13.87,7.76-5.06,10.525,11.12a61.742,61.742,0,0,1,5.735-2.38l-.26-14.5,8.67-2.675,6.145,13.16a77.416,77.416,0,0,1,8.06-1.1l2.555-14h8.72l2.7,13.885a82.973,82.973,0,0,1,8.6,1.045l5.13-13.22,8.12,1.86-.285,14.65s6.23,2.195,7.215,2.805l9.3-10.145,7.255,4.2-3.87,12.86s4.16,2.79,6.485,4.71L387.92,207l6.2,5.99-7.065,10.59a79.039,79.039,0,0,1,6.1,7.445l11.395-4.19,3.685,6.83-8.585,7.705s4.3,8.32,4.745,10.525l11.03-1.425,1.585,8.21-9.335,4.2a73.545,73.545,0,0,1,1.755,10.92l10.7,1.42v1.78l-80.165,5.485a17.416,17.416,0,0,0,1.255-6.225s12.485,2.245,12.87-7.98c0,0,.65-8.485-7.89-8.72,0,0-3.835-.275-5.78,1.835,0,0-4.3-10.7-14.3-11.415l-2.41-9.465,16.005-.835s1.6-1.985-1.365-1.9-33.79-.225-33.79-.225-3.515-.19-1.315,2.11l15.89.845-2.56,9.135s-8.43,1.035-13.31,11.63a10.122,10.122,0,0,0-6.39-1.655s-6.06-.035-7.49,8.145c0,0-.96,11.26,12.82,8.46a22.9,22.9,0,0,0,1.045,6.265l-80.85-8.145.19-1.955,14.135-.525Z" transform="translate(-222.235 -181.68)" fill="rgba(23,37,84,0.05)"/>
        </g>
      </g>
      <g id="FliteWatch_Logo_-_Size_Medium_-_Black-16" data-name="FliteWatch Logo - Size Medium - Black" transform="translate(1315.603 -1.68)">
        <g id="Group_1-16" data-name="Group 1" transform="translate(222.08 181.68)">
          <path id="Path_1-16" data-name="Path 1" d="M421.415,377.62a6.053,6.053,0,0,1-.07,1.875l-11.92,2.835-80.24,9.07c-.98,1.465-5.835,3.47-9.585,3.3s-8.5-2.945-8.5-2.945L233.475,380.91l-11.07-3.32c-.1-.8-.255-.89-.325-1.69l11.9,3.26,77.055,10.01c5.835,3.37,8.9,3.235,8.9,3.235a19.887,19.887,0,0,0,8.37-3.34l79.5-8.385,13.11-2.945.495-.12Z" transform="translate(-222.08 -278.79)" fill="rgba(23,37,84,0.05)"/>
          <path id="Path_2-16" data-name="Path 2" d="M236.72,271.845s.555-6.06,1.515-8.78l-12.4-4.75,2.87-8.55,12.76,2.38a83.041,83.041,0,0,1,4.005-9.18l-10.44-8.9,4.345-7.81,13.29,4.955s2.92-4.035,4.535-5.725l-7.63-12.24,6.43-6.395L268.45,214.6s3.35-2.73,4.8-3.615l-4.645-13.87,7.76-5.06,10.525,11.12a61.742,61.742,0,0,1,5.735-2.38l-.26-14.5,8.67-2.675,6.145,13.16a77.416,77.416,0,0,1,8.06-1.1l2.555-14h8.72l2.7,13.885a82.973,82.973,0,0,1,8.6,1.045l5.13-13.22,8.12,1.86-.285,14.65s6.23,2.195,7.215,2.805l9.3-10.145,7.255,4.2-3.87,12.86s4.16,2.79,6.485,4.71L387.92,207l6.2,5.99-7.065,10.59a79.039,79.039,0,0,1,6.1,7.445l11.395-4.19,3.685,6.83-8.585,7.705s4.3,8.32,4.745,10.525l11.03-1.425,1.585,8.21-9.335,4.2a73.545,73.545,0,0,1,1.755,10.92l10.7,1.42v1.78l-80.165,5.485a17.416,17.416,0,0,0,1.255-6.225s12.485,2.245,12.87-7.98c0,0,.65-8.485-7.89-8.72,0,0-3.835-.275-5.78,1.835,0,0-4.3-10.7-14.3-11.415l-2.41-9.465,16.005-.835s1.6-1.985-1.365-1.9-33.79-.225-33.79-.225-3.515-.19-1.315,2.11l15.89.845-2.56,9.135s-8.43,1.035-13.31,11.63a10.122,10.122,0,0,0-6.39-1.655s-6.06-.035-7.49,8.145c0,0-.96,11.26,12.82,8.46a22.9,22.9,0,0,0,1.045,6.265l-80.85-8.145.19-1.955,14.135-.525Z" transform="translate(-222.235 -181.68)" fill="rgba(23,37,84,0.05)"/>
        </g>
      </g>
      <g id="FliteWatch_Logo_-_Size_Medium_-_Black-17" data-name="FliteWatch Logo - Size Medium - Black" transform="translate(1546.977 -1.68)">
        <g id="Group_1-17" data-name="Group 1" transform="translate(222.08 181.68)">
          <path id="Path_1-17" data-name="Path 1" d="M421.415,377.62a6.053,6.053,0,0,1-.07,1.875l-11.92,2.835-80.24,9.07c-.98,1.465-5.835,3.47-9.585,3.3s-8.5-2.945-8.5-2.945L233.475,380.91l-11.07-3.32c-.1-.8-.255-.89-.325-1.69l11.9,3.26,77.055,10.01c5.835,3.37,8.9,3.235,8.9,3.235a19.887,19.887,0,0,0,8.37-3.34l79.5-8.385,13.11-2.945.495-.12Z" transform="translate(-222.08 -278.79)" fill="rgba(23,37,84,0.05)"/>
          <path id="Path_2-17" data-name="Path 2" d="M236.72,271.845s.555-6.06,1.515-8.78l-12.4-4.75,2.87-8.55,12.76,2.38a83.041,83.041,0,0,1,4.005-9.18l-10.44-8.9,4.345-7.81,13.29,4.955s2.92-4.035,4.535-5.725l-7.63-12.24,6.43-6.395L268.45,214.6s3.35-2.73,4.8-3.615l-4.645-13.87,7.76-5.06,10.525,11.12a61.742,61.742,0,0,1,5.735-2.38l-.26-14.5,8.67-2.675,6.145,13.16a77.416,77.416,0,0,1,8.06-1.1l2.555-14h8.72l2.7,13.885a82.973,82.973,0,0,1,8.6,1.045l5.13-13.22,8.12,1.86-.285,14.65s6.23,2.195,7.215,2.805l9.3-10.145,7.255,4.2-3.87,12.86s4.16,2.79,6.485,4.71L387.92,207l6.2,5.99-7.065,10.59a79.039,79.039,0,0,1,6.1,7.445l11.395-4.19,3.685,6.83-8.585,7.705s4.3,8.32,4.745,10.525l11.03-1.425,1.585,8.21-9.335,4.2a73.545,73.545,0,0,1,1.755,10.92l10.7,1.42v1.78l-80.165,5.485a17.416,17.416,0,0,0,1.255-6.225s12.485,2.245,12.87-7.98c0,0,.65-8.485-7.89-8.72,0,0-3.835-.275-5.78,1.835,0,0-4.3-10.7-14.3-11.415l-2.41-9.465,16.005-.835s1.6-1.985-1.365-1.9-33.79-.225-33.79-.225-3.515-.19-1.315,2.11l15.89.845-2.56,9.135s-8.43,1.035-13.31,11.63a10.122,10.122,0,0,0-6.39-1.655s-6.06-.035-7.49,8.145c0,0-.96,11.26,12.82,8.46a22.9,22.9,0,0,0,1.045,6.265l-80.85-8.145.19-1.955,14.135-.525Z" transform="translate(-222.235 -181.68)" fill="rgba(23,37,84,0.05)"/>
        </g>
      </g>
    </g>
  </g>
</svg>
