<svg xmlns="http://www.w3.org/2000/svg" xmlns:xlink="http://www.w3.org/1999/xlink" width="1896.74" height="394.18" viewBox="0 0 1896.74 394.18">
  <defs>
    <clipPath id="clip-pattern">
      <rect width="1896.74" height="394.18"/>
    </clipPath>
  </defs>
  <g id="pattern" clip-path="url(#clip-pattern)">
    <rect width="1896.74" height="394.18" fill="#fff"/>
    <g id="Group_4" data-name="Group 4">
      <g id="Group_2" data-name="Group 2">
        <g id="logo-final-jethouse" transform="translate(0)">
          <path id="Path_1" data-name="Path 1" d="M427.522,468.842c0,32.137-27.066,58.292-60.305,58.292H333.645a60.551,60.551,0,0,1-51.093-27.39,57.084,57.084,0,0,1-6.221-12.817,55.993,55.993,0,0,1-2.991-18.086V393.65c0-32.137,27.066-58.292,60.305-58.292h33.572c33.239,0,60.305,26.156,60.305,58.292ZM367.216,332.7H333.645c-34.949,0-63.344,27.342-63.344,60.95v76.283a57.661,57.661,0,0,0,2.707,16.614c8.072,25.443,33,43.244,60.638,43.244h33.572c34.949,0,63.345-27.342,63.345-60.95V393.65c0-33.608-28.443-60.95-63.345-60.95" transform="translate(-270.3 -332.7)" fill="rgba(23,37,84,0.05)"/>
          <path id="Path_2" data-name="Path 2" d="M486.825,446.627h-7.538V369.779a48.329,48.329,0,0,0-5.879-.379H469V530.917h4.409a47.705,47.705,0,0,0,5.879-.379V456.914H516.6V446.627Z" transform="translate(-374.802 -352.001)" fill="rgba(23,37,84,0.05)"/>
          <path id="Path_3" data-name="Path 3" d="M372.683,394.1c0-1-.047-18.252-.142-24.7h-9.2a8.4,8.4,0,0,0-1.09.047c.095,6.637.19,24.415.19,25.742v66.418A47.616,47.616,0,0,1,323,508.446c0,.047.047.047.047.095a47.51,47.51,0,0,0,7.111,8.818,57.92,57.92,0,0,0,42.572-55.751V395.142c0-.332-.047-.664-.047-1.043" transform="translate(-298.016 -352.001)" fill="rgba(23,37,84,0.05)"/>
          <path id="Path_4" data-name="Path 4" d="M420.873,471.955a47.607,47.607,0,0,1-47.55,47.55H344.737a47.475,47.475,0,0,1-47.5-47.5V405.537a47.607,47.607,0,0,1,47.55-47.55h28.587a47.607,47.607,0,0,1,47.55,47.55v66.418ZM373.324,347.7H344.737A57.885,57.885,0,0,0,286.9,405.537V472a7.678,7.678,0,0,0,.047,1.043,57.665,57.665,0,0,0,57.79,56.747h28.587a57.885,57.885,0,0,0,57.837-57.837V405.537A57.885,57.885,0,0,0,373.324,347.7" transform="translate(-279.03 -340.589)" fill="rgba(23,37,84,0.05)"/>
        </g>
        <g id="logo-final-jethouse-2" data-name="logo-final-jethouse" transform="translate(193)">
          <path id="Path_1-2" data-name="Path 1" d="M427.522,468.842c0,32.137-27.066,58.292-60.305,58.292H333.645a60.551,60.551,0,0,1-51.093-27.39,57.084,57.084,0,0,1-6.221-12.817,55.993,55.993,0,0,1-2.991-18.086V393.65c0-32.137,27.066-58.292,60.305-58.292h33.572c33.239,0,60.305,26.156,60.305,58.292ZM367.216,332.7H333.645c-34.949,0-63.344,27.342-63.344,60.95v76.283a57.661,57.661,0,0,0,2.707,16.614c8.072,25.443,33,43.244,60.638,43.244h33.572c34.949,0,63.345-27.342,63.345-60.95V393.65c0-33.608-28.443-60.95-63.345-60.95" transform="translate(-270.3 -332.7)" fill="rgba(23,37,84,0.05)"/>
          <path id="Path_2-2" data-name="Path 2" d="M486.825,446.627h-7.538V369.779a48.329,48.329,0,0,0-5.879-.379H469V530.917h4.409a47.705,47.705,0,0,0,5.879-.379V456.914H516.6V446.627Z" transform="translate(-374.802 -352.001)" fill="rgba(23,37,84,0.05)"/>
          <path id="Path_3-2" data-name="Path 3" d="M372.683,394.1c0-1-.047-18.252-.142-24.7h-9.2a8.4,8.4,0,0,0-1.09.047c.095,6.637.19,24.415.19,25.742v66.418A47.616,47.616,0,0,1,323,508.446c0,.047.047.047.047.095a47.51,47.51,0,0,0,7.111,8.818,57.92,57.92,0,0,0,42.572-55.751V395.142c0-.332-.047-.664-.047-1.043" transform="translate(-298.016 -352.001)" fill="rgba(23,37,84,0.05)"/>
          <path id="Path_4-2" data-name="Path 4" d="M420.873,471.955a47.607,47.607,0,0,1-47.55,47.55H344.737a47.475,47.475,0,0,1-47.5-47.5V405.537a47.607,47.607,0,0,1,47.55-47.55h28.587a47.607,47.607,0,0,1,47.55,47.55v66.418ZM373.324,347.7H344.737A57.885,57.885,0,0,0,286.9,405.537V472a7.678,7.678,0,0,0,.047,1.043,57.665,57.665,0,0,0,57.79,56.747h28.587a57.885,57.885,0,0,0,57.837-57.837V405.537A57.885,57.885,0,0,0,373.324,347.7" transform="translate(-279.03 -340.589)" fill="rgba(23,37,84,0.05)"/>
        </g>
        <g id="logo-final-jethouse-3" data-name="logo-final-jethouse" transform="translate(386)">
          <path id="Path_1-3" data-name="Path 1" d="M427.522,468.842c0,32.137-27.066,58.292-60.305,58.292H333.645a60.551,60.551,0,0,1-51.093-27.39,57.084,57.084,0,0,1-6.221-12.817,55.993,55.993,0,0,1-2.991-18.086V393.65c0-32.137,27.066-58.292,60.305-58.292h33.572c33.239,0,60.305,26.156,60.305,58.292ZM367.216,332.7H333.645c-34.949,0-63.344,27.342-63.344,60.95v76.283a57.661,57.661,0,0,0,2.707,16.614c8.072,25.443,33,43.244,60.638,43.244h33.572c34.949,0,63.345-27.342,63.345-60.95V393.65c0-33.608-28.443-60.95-63.345-60.95" transform="translate(-270.3 -332.7)" fill="rgba(23,37,84,0.05)"/>
          <path id="Path_2-3" data-name="Path 2" d="M486.825,446.627h-7.538V369.779a48.329,48.329,0,0,0-5.879-.379H469V530.917h4.409a47.705,47.705,0,0,0,5.879-.379V456.914H516.6V446.627Z" transform="translate(-374.802 -352.001)" fill="rgba(23,37,84,0.05)"/>
          <path id="Path_3-3" data-name="Path 3" d="M372.683,394.1c0-1-.047-18.252-.142-24.7h-9.2a8.4,8.4,0,0,0-1.09.047c.095,6.637.19,24.415.19,25.742v66.418A47.616,47.616,0,0,1,323,508.446c0,.047.047.047.047.095a47.51,47.51,0,0,0,7.111,8.818,57.92,57.92,0,0,0,42.572-55.751V395.142c0-.332-.047-.664-.047-1.043" transform="translate(-298.016 -352.001)" fill="rgba(23,37,84,0.05)"/>
          <path id="Path_4-3" data-name="Path 4" d="M420.873,471.955a47.607,47.607,0,0,1-47.55,47.55H344.737a47.475,47.475,0,0,1-47.5-47.5V405.537a47.607,47.607,0,0,1,47.55-47.55h28.587a47.607,47.607,0,0,1,47.55,47.55v66.418ZM373.324,347.7H344.737A57.885,57.885,0,0,0,286.9,405.537V472a7.678,7.678,0,0,0,.047,1.043,57.665,57.665,0,0,0,57.79,56.747h28.587a57.885,57.885,0,0,0,57.837-57.837V405.537A57.885,57.885,0,0,0,373.324,347.7" transform="translate(-279.03 -340.589)" fill="rgba(23,37,84,0.05)"/>
        </g>
        <g id="logo-final-jethouse-4" data-name="logo-final-jethouse" transform="translate(579)">
          <path id="Path_1-4" data-name="Path 1" d="M427.522,468.842c0,32.137-27.066,58.292-60.305,58.292H333.645a60.551,60.551,0,0,1-51.093-27.39,57.084,57.084,0,0,1-6.221-12.817,55.993,55.993,0,0,1-2.991-18.086V393.65c0-32.137,27.066-58.292,60.305-58.292h33.572c33.239,0,60.305,26.156,60.305,58.292ZM367.216,332.7H333.645c-34.949,0-63.344,27.342-63.344,60.95v76.283a57.661,57.661,0,0,0,2.707,16.614c8.072,25.443,33,43.244,60.638,43.244h33.572c34.949,0,63.345-27.342,63.345-60.95V393.65c0-33.608-28.443-60.95-63.345-60.95" transform="translate(-270.3 -332.7)" fill="rgba(23,37,84,0.05)"/>
          <path id="Path_2-4" data-name="Path 2" d="M486.825,446.627h-7.538V369.779a48.329,48.329,0,0,0-5.879-.379H469V530.917h4.409a47.705,47.705,0,0,0,5.879-.379V456.914H516.6V446.627Z" transform="translate(-374.802 -352.001)" fill="rgba(23,37,84,0.05)"/>
          <path id="Path_3-4" data-name="Path 3" d="M372.683,394.1c0-1-.047-18.252-.142-24.7h-9.2a8.4,8.4,0,0,0-1.09.047c.095,6.637.19,24.415.19,25.742v66.418A47.616,47.616,0,0,1,323,508.446c0,.047.047.047.047.095a47.51,47.51,0,0,0,7.111,8.818,57.92,57.92,0,0,0,42.572-55.751V395.142c0-.332-.047-.664-.047-1.043" transform="translate(-298.016 -352.001)" fill="rgba(23,37,84,0.05)"/>
          <path id="Path_4-4" data-name="Path 4" d="M420.873,471.955a47.607,47.607,0,0,1-47.55,47.55H344.737a47.475,47.475,0,0,1-47.5-47.5V405.537a47.607,47.607,0,0,1,47.55-47.55h28.587a47.607,47.607,0,0,1,47.55,47.55v66.418ZM373.324,347.7H344.737A57.885,57.885,0,0,0,286.9,405.537V472a7.678,7.678,0,0,0,.047,1.043,57.665,57.665,0,0,0,57.79,56.747h28.587a57.885,57.885,0,0,0,57.837-57.837V405.537A57.885,57.885,0,0,0,373.324,347.7" transform="translate(-279.03 -340.589)" fill="rgba(23,37,84,0.05)"/>
        </g>
        <g id="logo-final-jethouse-5" data-name="logo-final-jethouse" transform="translate(772)">
          <path id="Path_1-5" data-name="Path 1" d="M427.522,468.842c0,32.137-27.066,58.292-60.305,58.292H333.645a60.551,60.551,0,0,1-51.093-27.39,57.084,57.084,0,0,1-6.221-12.817,55.993,55.993,0,0,1-2.991-18.086V393.65c0-32.137,27.066-58.292,60.305-58.292h33.572c33.239,0,60.305,26.156,60.305,58.292ZM367.216,332.7H333.645c-34.949,0-63.344,27.342-63.344,60.95v76.283a57.661,57.661,0,0,0,2.707,16.614c8.072,25.443,33,43.244,60.638,43.244h33.572c34.949,0,63.345-27.342,63.345-60.95V393.65c0-33.608-28.443-60.95-63.345-60.95" transform="translate(-270.3 -332.7)" fill="rgba(23,37,84,0.05)"/>
          <path id="Path_2-5" data-name="Path 2" d="M486.825,446.627h-7.538V369.779a48.329,48.329,0,0,0-5.879-.379H469V530.917h4.409a47.705,47.705,0,0,0,5.879-.379V456.914H516.6V446.627Z" transform="translate(-374.802 -352.001)" fill="rgba(23,37,84,0.05)"/>
          <path id="Path_3-5" data-name="Path 3" d="M372.683,394.1c0-1-.047-18.252-.142-24.7h-9.2a8.4,8.4,0,0,0-1.09.047c.095,6.637.19,24.415.19,25.742v66.418A47.616,47.616,0,0,1,323,508.446c0,.047.047.047.047.095a47.51,47.51,0,0,0,7.111,8.818,57.92,57.92,0,0,0,42.572-55.751V395.142c0-.332-.047-.664-.047-1.043" transform="translate(-298.016 -352.001)" fill="rgba(23,37,84,0.05)"/>
          <path id="Path_4-5" data-name="Path 4" d="M420.873,471.955a47.607,47.607,0,0,1-47.55,47.55H344.737a47.475,47.475,0,0,1-47.5-47.5V405.537a47.607,47.607,0,0,1,47.55-47.55h28.587a47.607,47.607,0,0,1,47.55,47.55v66.418ZM373.324,347.7H344.737A57.885,57.885,0,0,0,286.9,405.537V472a7.678,7.678,0,0,0,.047,1.043,57.665,57.665,0,0,0,57.79,56.747h28.587a57.885,57.885,0,0,0,57.837-57.837V405.537A57.885,57.885,0,0,0,373.324,347.7" transform="translate(-279.03 -340.589)" fill="rgba(23,37,84,0.05)"/>
        </g>
        <g id="logo-final-jethouse-6" data-name="logo-final-jethouse" transform="translate(965)">
          <path id="Path_1-6" data-name="Path 1" d="M427.522,468.842c0,32.137-27.066,58.292-60.305,58.292H333.645a60.551,60.551,0,0,1-51.093-27.39,57.084,57.084,0,0,1-6.221-12.817,55.993,55.993,0,0,1-2.991-18.086V393.65c0-32.137,27.066-58.292,60.305-58.292h33.572c33.239,0,60.305,26.156,60.305,58.292ZM367.216,332.7H333.645c-34.949,0-63.344,27.342-63.344,60.95v76.283a57.661,57.661,0,0,0,2.707,16.614c8.072,25.443,33,43.244,60.638,43.244h33.572c34.949,0,63.345-27.342,63.345-60.95V393.65c0-33.608-28.443-60.95-63.345-60.95" transform="translate(-270.3 -332.7)" fill="rgba(23,37,84,0.05)"/>
          <path id="Path_2-6" data-name="Path 2" d="M486.825,446.627h-7.538V369.779a48.329,48.329,0,0,0-5.879-.379H469V530.917h4.409a47.705,47.705,0,0,0,5.879-.379V456.914H516.6V446.627Z" transform="translate(-374.802 -352.001)" fill="rgba(23,37,84,0.05)"/>
          <path id="Path_3-6" data-name="Path 3" d="M372.683,394.1c0-1-.047-18.252-.142-24.7h-9.2a8.4,8.4,0,0,0-1.09.047c.095,6.637.19,24.415.19,25.742v66.418A47.616,47.616,0,0,1,323,508.446c0,.047.047.047.047.095a47.51,47.51,0,0,0,7.111,8.818,57.92,57.92,0,0,0,42.572-55.751V395.142c0-.332-.047-.664-.047-1.043" transform="translate(-298.016 -352.001)" fill="rgba(23,37,84,0.05)"/>
          <path id="Path_4-6" data-name="Path 4" d="M420.873,471.955a47.607,47.607,0,0,1-47.55,47.55H344.737a47.475,47.475,0,0,1-47.5-47.5V405.537a47.607,47.607,0,0,1,47.55-47.55h28.587a47.607,47.607,0,0,1,47.55,47.55v66.418ZM373.324,347.7H344.737A57.885,57.885,0,0,0,286.9,405.537V472a7.678,7.678,0,0,0,.047,1.043,57.665,57.665,0,0,0,57.79,56.747h28.587a57.885,57.885,0,0,0,57.837-57.837V405.537A57.885,57.885,0,0,0,373.324,347.7" transform="translate(-279.03 -340.589)" fill="rgba(23,37,84,0.05)"/>
        </g>
        <g id="logo-final-jethouse-7" data-name="logo-final-jethouse" transform="translate(1158)">
          <path id="Path_1-7" data-name="Path 1" d="M427.522,468.842c0,32.137-27.066,58.292-60.305,58.292H333.645a60.551,60.551,0,0,1-51.093-27.39,57.084,57.084,0,0,1-6.221-12.817,55.993,55.993,0,0,1-2.991-18.086V393.65c0-32.137,27.066-58.292,60.305-58.292h33.572c33.239,0,60.305,26.156,60.305,58.292ZM367.216,332.7H333.645c-34.949,0-63.344,27.342-63.344,60.95v76.283a57.661,57.661,0,0,0,2.707,16.614c8.072,25.443,33,43.244,60.638,43.244h33.572c34.949,0,63.345-27.342,63.345-60.95V393.65c0-33.608-28.443-60.95-63.345-60.95" transform="translate(-270.3 -332.7)" fill="rgba(23,37,84,0.05)"/>
          <path id="Path_2-7" data-name="Path 2" d="M486.825,446.627h-7.538V369.779a48.329,48.329,0,0,0-5.879-.379H469V530.917h4.409a47.705,47.705,0,0,0,5.879-.379V456.914H516.6V446.627Z" transform="translate(-374.802 -352.001)" fill="rgba(23,37,84,0.05)"/>
          <path id="Path_3-7" data-name="Path 3" d="M372.683,394.1c0-1-.047-18.252-.142-24.7h-9.2a8.4,8.4,0,0,0-1.09.047c.095,6.637.19,24.415.19,25.742v66.418A47.616,47.616,0,0,1,323,508.446c0,.047.047.047.047.095a47.51,47.51,0,0,0,7.111,8.818,57.92,57.92,0,0,0,42.572-55.751V395.142c0-.332-.047-.664-.047-1.043" transform="translate(-298.016 -352.001)" fill="rgba(23,37,84,0.05)"/>
          <path id="Path_4-7" data-name="Path 4" d="M420.873,471.955a47.607,47.607,0,0,1-47.55,47.55H344.737a47.475,47.475,0,0,1-47.5-47.5V405.537a47.607,47.607,0,0,1,47.55-47.55h28.587a47.607,47.607,0,0,1,47.55,47.55v66.418ZM373.324,347.7H344.737A57.885,57.885,0,0,0,286.9,405.537V472a7.678,7.678,0,0,0,.047,1.043,57.665,57.665,0,0,0,57.79,56.747h28.587a57.885,57.885,0,0,0,57.837-57.837V405.537A57.885,57.885,0,0,0,373.324,347.7" transform="translate(-279.03 -340.589)" fill="rgba(23,37,84,0.05)"/>
        </g>
        <g id="logo-final-jethouse-8" data-name="logo-final-jethouse" transform="translate(1351)">
          <path id="Path_1-8" data-name="Path 1" d="M427.522,468.842c0,32.137-27.066,58.292-60.305,58.292H333.645a60.551,60.551,0,0,1-51.093-27.39,57.084,57.084,0,0,1-6.221-12.817,55.993,55.993,0,0,1-2.991-18.086V393.65c0-32.137,27.066-58.292,60.305-58.292h33.572c33.239,0,60.305,26.156,60.305,58.292ZM367.216,332.7H333.645c-34.949,0-63.344,27.342-63.344,60.95v76.283a57.661,57.661,0,0,0,2.707,16.614c8.072,25.443,33,43.244,60.638,43.244h33.572c34.949,0,63.345-27.342,63.345-60.95V393.65c0-33.608-28.443-60.95-63.345-60.95" transform="translate(-270.3 -332.7)" fill="rgba(23,37,84,0.05)"/>
          <path id="Path_2-8" data-name="Path 2" d="M486.825,446.627h-7.538V369.779a48.329,48.329,0,0,0-5.879-.379H469V530.917h4.409a47.705,47.705,0,0,0,5.879-.379V456.914H516.6V446.627Z" transform="translate(-374.802 -352.001)" fill="rgba(23,37,84,0.05)"/>
          <path id="Path_3-8" data-name="Path 3" d="M372.683,394.1c0-1-.047-18.252-.142-24.7h-9.2a8.4,8.4,0,0,0-1.09.047c.095,6.637.19,24.415.19,25.742v66.418A47.616,47.616,0,0,1,323,508.446c0,.047.047.047.047.095a47.51,47.51,0,0,0,7.111,8.818,57.92,57.92,0,0,0,42.572-55.751V395.142c0-.332-.047-.664-.047-1.043" transform="translate(-298.016 -352.001)" fill="rgba(23,37,84,0.05)"/>
          <path id="Path_4-8" data-name="Path 4" d="M420.873,471.955a47.607,47.607,0,0,1-47.55,47.55H344.737a47.475,47.475,0,0,1-47.5-47.5V405.537a47.607,47.607,0,0,1,47.55-47.55h28.587a47.607,47.607,0,0,1,47.55,47.55v66.418ZM373.324,347.7H344.737A57.885,57.885,0,0,0,286.9,405.537V472a7.678,7.678,0,0,0,.047,1.043,57.665,57.665,0,0,0,57.79,56.747h28.587a57.885,57.885,0,0,0,57.837-57.837V405.537A57.885,57.885,0,0,0,373.324,347.7" transform="translate(-279.03 -340.589)" fill="rgba(23,37,84,0.05)"/>
        </g>
        <g id="logo-final-jethouse-9" data-name="logo-final-jethouse" transform="translate(1273.7 -332.7)">
          <path id="Path_1-9" data-name="Path 1" d="M427.266,468.664c0,32.095-27.022,58.216-60.207,58.216H333.541a60.447,60.447,0,0,1-51.01-27.354,57.018,57.018,0,0,1-6.21-12.8,55.936,55.936,0,0,1-2.987-18.062V393.571c0-32.095,27.022-58.216,60.207-58.216h33.517c33.185,0,60.207,26.121,60.207,58.216ZM367.059,332.7H333.541c-34.892,0-63.241,27.307-63.241,60.871v76.184a57.6,57.6,0,0,0,2.7,16.593c8.059,25.41,32.948,43.188,60.539,43.188h33.517c34.892,0,63.241-27.307,63.241-60.871V393.571c0-33.564-28.4-60.871-63.242-60.871" fill="rgba(23,37,84,0.05)"/>
          <path id="Path_2-9" data-name="Path 2" d="M486.825,446.627h-7.538V369.779a48.329,48.329,0,0,0-5.879-.379H469V530.917h4.409a47.705,47.705,0,0,0,5.879-.379V456.914H516.6V446.627Z" transform="translate(-104.501 -19.301)" fill="rgba(23,37,84,0.05)"/>
          <path id="Path_3-9" data-name="Path 3" d="M372.683,394.1c0-1-.047-18.252-.142-24.7h-9.2a8.4,8.4,0,0,0-1.09.047c.095,6.637.19,24.415.19,25.742v66.418A47.616,47.616,0,0,1,323,508.446c0,.047.047.047.047.095a47.51,47.51,0,0,0,7.111,8.818,57.92,57.92,0,0,0,42.572-55.751V395.142c0-.332-.047-.664-.047-1.043" transform="translate(-27.716 -19.301)" fill="rgba(23,37,84,0.05)"/>
          <path id="Path_4-9" data-name="Path 4" d="M420.873,471.955a47.607,47.607,0,0,1-47.55,47.55H344.737a47.475,47.475,0,0,1-47.5-47.5V405.537a47.607,47.607,0,0,1,47.55-47.55h28.587a47.607,47.607,0,0,1,47.55,47.55v66.418ZM373.324,347.7H344.737A57.885,57.885,0,0,0,286.9,405.537V472a7.678,7.678,0,0,0,.047,1.043,57.665,57.665,0,0,0,57.79,56.747h28.587a57.885,57.885,0,0,0,57.837-57.837V405.537A57.885,57.885,0,0,0,373.324,347.7" transform="translate(-8.73 -7.889)" fill="rgba(23,37,84,0.05)"/>
        </g>
        <g id="logo-final-jethouse-10" data-name="logo-final-jethouse" transform="translate(1466.439 -332.7)">
          <path id="Path_1-10" data-name="Path 1" d="M427.266,468.664c0,32.095-27.022,58.216-60.207,58.216H333.541a60.447,60.447,0,0,1-51.01-27.354,57.018,57.018,0,0,1-6.21-12.8,55.936,55.936,0,0,1-2.987-18.062V393.571c0-32.095,27.022-58.216,60.207-58.216h33.517c33.185,0,60.207,26.121,60.207,58.216ZM367.059,332.7H333.541c-34.892,0-63.241,27.307-63.241,60.871v76.184a57.6,57.6,0,0,0,2.7,16.593c8.059,25.41,32.948,43.188,60.539,43.188h33.517c34.892,0,63.241-27.307,63.241-60.871V393.571c0-33.564-28.4-60.871-63.242-60.871" fill="rgba(23,37,84,0.05)"/>
          <path id="Path_2-10" data-name="Path 2" d="M486.825,446.627h-7.538V369.779a48.329,48.329,0,0,0-5.879-.379H469V530.917h4.409a47.705,47.705,0,0,0,5.879-.379V456.914H516.6V446.627Z" transform="translate(-104.501 -19.301)" fill="rgba(23,37,84,0.05)"/>
          <path id="Path_3-10" data-name="Path 3" d="M372.683,394.1c0-1-.047-18.252-.142-24.7h-9.2a8.4,8.4,0,0,0-1.09.047c.095,6.637.19,24.415.19,25.742v66.418A47.616,47.616,0,0,1,323,508.446c0,.047.047.047.047.095a47.51,47.51,0,0,0,7.111,8.818,57.92,57.92,0,0,0,42.572-55.751V395.142c0-.332-.047-.664-.047-1.043" transform="translate(-27.716 -19.301)" fill="rgba(23,37,84,0.05)"/>
          <path id="Path_4-10" data-name="Path 4" d="M420.873,471.955a47.607,47.607,0,0,1-47.55,47.55H344.737a47.475,47.475,0,0,1-47.5-47.5V405.537a47.607,47.607,0,0,1,47.55-47.55h28.587a47.607,47.607,0,0,1,47.55,47.55v66.418ZM373.324,347.7H344.737A57.885,57.885,0,0,0,286.9,405.537V472a7.678,7.678,0,0,0,.047,1.043,57.665,57.665,0,0,0,57.79,56.747h28.587a57.885,57.885,0,0,0,57.837-57.837V405.537A57.885,57.885,0,0,0,373.324,347.7" transform="translate(-8.73 -7.889)" fill="rgba(23,37,84,0.05)"/>
        </g>
      </g>
      <g id="Group_3" data-name="Group 3" transform="translate(96.13 197.092)">
        <g id="logo-final-jethouse-11" data-name="logo-final-jethouse" transform="translate(0)">
          <path id="Path_1-11" data-name="Path 1" d="M427.522,468.842c0,32.137-27.066,58.292-60.305,58.292H333.645a60.551,60.551,0,0,1-51.093-27.39,57.084,57.084,0,0,1-6.221-12.817,55.993,55.993,0,0,1-2.991-18.086V393.65c0-32.137,27.066-58.292,60.305-58.292h33.572c33.239,0,60.305,26.156,60.305,58.292ZM367.216,332.7H333.645c-34.949,0-63.344,27.342-63.344,60.95v76.283a57.661,57.661,0,0,0,2.707,16.614c8.072,25.443,33,43.244,60.638,43.244h33.572c34.949,0,63.345-27.342,63.345-60.95V393.65c0-33.608-28.443-60.95-63.345-60.95" transform="translate(-270.3 -332.7)" fill="rgba(23,37,84,0.05)"/>
          <path id="Path_2-11" data-name="Path 2" d="M486.825,446.627h-7.538V369.779a48.329,48.329,0,0,0-5.879-.379H469V530.917h4.409a47.705,47.705,0,0,0,5.879-.379V456.914H516.6V446.627Z" transform="translate(-374.802 -352.001)" fill="rgba(23,37,84,0.05)"/>
          <path id="Path_3-11" data-name="Path 3" d="M372.683,394.1c0-1-.047-18.252-.142-24.7h-9.2a8.4,8.4,0,0,0-1.09.047c.095,6.637.19,24.415.19,25.742v66.418A47.616,47.616,0,0,1,323,508.446c0,.047.047.047.047.095a47.51,47.51,0,0,0,7.111,8.818,57.92,57.92,0,0,0,42.572-55.751V395.142c0-.332-.047-.664-.047-1.043" transform="translate(-298.016 -352.001)" fill="rgba(23,37,84,0.05)"/>
          <path id="Path_4-11" data-name="Path 4" d="M420.873,471.955a47.607,47.607,0,0,1-47.55,47.55H344.737a47.475,47.475,0,0,1-47.5-47.5V405.537a47.607,47.607,0,0,1,47.55-47.55h28.587a47.607,47.607,0,0,1,47.55,47.55v66.418ZM373.324,347.7H344.737A57.885,57.885,0,0,0,286.9,405.537V472a7.678,7.678,0,0,0,.047,1.043,57.665,57.665,0,0,0,57.79,56.747h28.587a57.885,57.885,0,0,0,57.837-57.837V405.537A57.885,57.885,0,0,0,373.324,347.7" transform="translate(-279.03 -340.589)" fill="rgba(23,37,84,0.05)"/>
        </g>
        <g id="logo-final-jethouse-12" data-name="logo-final-jethouse" transform="translate(193)">
          <path id="Path_1-12" data-name="Path 1" d="M427.522,468.842c0,32.137-27.066,58.292-60.305,58.292H333.645a60.551,60.551,0,0,1-51.093-27.39,57.084,57.084,0,0,1-6.221-12.817,55.993,55.993,0,0,1-2.991-18.086V393.65c0-32.137,27.066-58.292,60.305-58.292h33.572c33.239,0,60.305,26.156,60.305,58.292ZM367.216,332.7H333.645c-34.949,0-63.344,27.342-63.344,60.95v76.283a57.661,57.661,0,0,0,2.707,16.614c8.072,25.443,33,43.244,60.638,43.244h33.572c34.949,0,63.345-27.342,63.345-60.95V393.65c0-33.608-28.443-60.95-63.345-60.95" transform="translate(-270.3 -332.7)" fill="rgba(23,37,84,0.05)"/>
          <path id="Path_2-12" data-name="Path 2" d="M486.825,446.627h-7.538V369.779a48.329,48.329,0,0,0-5.879-.379H469V530.917h4.409a47.705,47.705,0,0,0,5.879-.379V456.914H516.6V446.627Z" transform="translate(-374.802 -352.001)" fill="rgba(23,37,84,0.05)"/>
          <path id="Path_3-12" data-name="Path 3" d="M372.683,394.1c0-1-.047-18.252-.142-24.7h-9.2a8.4,8.4,0,0,0-1.09.047c.095,6.637.19,24.415.19,25.742v66.418A47.616,47.616,0,0,1,323,508.446c0,.047.047.047.047.095a47.51,47.51,0,0,0,7.111,8.818,57.92,57.92,0,0,0,42.572-55.751V395.142c0-.332-.047-.664-.047-1.043" transform="translate(-298.016 -352.001)" fill="rgba(23,37,84,0.05)"/>
          <path id="Path_4-12" data-name="Path 4" d="M420.873,471.955a47.607,47.607,0,0,1-47.55,47.55H344.737a47.475,47.475,0,0,1-47.5-47.5V405.537a47.607,47.607,0,0,1,47.55-47.55h28.587a47.607,47.607,0,0,1,47.55,47.55v66.418ZM373.324,347.7H344.737A57.885,57.885,0,0,0,286.9,405.537V472a7.678,7.678,0,0,0,.047,1.043,57.665,57.665,0,0,0,57.79,56.747h28.587a57.885,57.885,0,0,0,57.837-57.837V405.537A57.885,57.885,0,0,0,373.324,347.7" transform="translate(-279.03 -340.589)" fill="rgba(23,37,84,0.05)"/>
        </g>
        <g id="logo-final-jethouse-13" data-name="logo-final-jethouse" transform="translate(386)">
          <path id="Path_1-13" data-name="Path 1" d="M427.522,468.842c0,32.137-27.066,58.292-60.305,58.292H333.645a60.551,60.551,0,0,1-51.093-27.39,57.084,57.084,0,0,1-6.221-12.817,55.993,55.993,0,0,1-2.991-18.086V393.65c0-32.137,27.066-58.292,60.305-58.292h33.572c33.239,0,60.305,26.156,60.305,58.292ZM367.216,332.7H333.645c-34.949,0-63.344,27.342-63.344,60.95v76.283a57.661,57.661,0,0,0,2.707,16.614c8.072,25.443,33,43.244,60.638,43.244h33.572c34.949,0,63.345-27.342,63.345-60.95V393.65c0-33.608-28.443-60.95-63.345-60.95" transform="translate(-270.3 -332.7)" fill="rgba(23,37,84,0.05)"/>
          <path id="Path_2-13" data-name="Path 2" d="M486.825,446.627h-7.538V369.779a48.329,48.329,0,0,0-5.879-.379H469V530.917h4.409a47.705,47.705,0,0,0,5.879-.379V456.914H516.6V446.627Z" transform="translate(-374.802 -352.001)" fill="rgba(23,37,84,0.05)"/>
          <path id="Path_3-13" data-name="Path 3" d="M372.683,394.1c0-1-.047-18.252-.142-24.7h-9.2a8.4,8.4,0,0,0-1.09.047c.095,6.637.19,24.415.19,25.742v66.418A47.616,47.616,0,0,1,323,508.446c0,.047.047.047.047.095a47.51,47.51,0,0,0,7.111,8.818,57.92,57.92,0,0,0,42.572-55.751V395.142c0-.332-.047-.664-.047-1.043" transform="translate(-298.016 -352.001)" fill="rgba(23,37,84,0.05)"/>
          <path id="Path_4-13" data-name="Path 4" d="M420.873,471.955a47.607,47.607,0,0,1-47.55,47.55H344.737a47.475,47.475,0,0,1-47.5-47.5V405.537a47.607,47.607,0,0,1,47.55-47.55h28.587a47.607,47.607,0,0,1,47.55,47.55v66.418ZM373.324,347.7H344.737A57.885,57.885,0,0,0,286.9,405.537V472a7.678,7.678,0,0,0,.047,1.043,57.665,57.665,0,0,0,57.79,56.747h28.587a57.885,57.885,0,0,0,57.837-57.837V405.537A57.885,57.885,0,0,0,373.324,347.7" transform="translate(-279.03 -340.589)" fill="rgba(23,37,84,0.05)"/>
        </g>
        <g id="logo-final-jethouse-14" data-name="logo-final-jethouse" transform="translate(579)">
          <path id="Path_1-14" data-name="Path 1" d="M427.522,468.842c0,32.137-27.066,58.292-60.305,58.292H333.645a60.551,60.551,0,0,1-51.093-27.39,57.084,57.084,0,0,1-6.221-12.817,55.993,55.993,0,0,1-2.991-18.086V393.65c0-32.137,27.066-58.292,60.305-58.292h33.572c33.239,0,60.305,26.156,60.305,58.292ZM367.216,332.7H333.645c-34.949,0-63.344,27.342-63.344,60.95v76.283a57.661,57.661,0,0,0,2.707,16.614c8.072,25.443,33,43.244,60.638,43.244h33.572c34.949,0,63.345-27.342,63.345-60.95V393.65c0-33.608-28.443-60.95-63.345-60.95" transform="translate(-270.3 -332.7)" fill="rgba(23,37,84,0.05)"/>
          <path id="Path_2-14" data-name="Path 2" d="M486.825,446.627h-7.538V369.779a48.329,48.329,0,0,0-5.879-.379H469V530.917h4.409a47.705,47.705,0,0,0,5.879-.379V456.914H516.6V446.627Z" transform="translate(-374.802 -352.001)" fill="rgba(23,37,84,0.05)"/>
          <path id="Path_3-14" data-name="Path 3" d="M372.683,394.1c0-1-.047-18.252-.142-24.7h-9.2a8.4,8.4,0,0,0-1.09.047c.095,6.637.19,24.415.19,25.742v66.418A47.616,47.616,0,0,1,323,508.446c0,.047.047.047.047.095a47.51,47.51,0,0,0,7.111,8.818,57.92,57.92,0,0,0,42.572-55.751V395.142c0-.332-.047-.664-.047-1.043" transform="translate(-298.016 -352.001)" fill="rgba(23,37,84,0.05)"/>
          <path id="Path_4-14" data-name="Path 4" d="M420.873,471.955a47.607,47.607,0,0,1-47.55,47.55H344.737a47.475,47.475,0,0,1-47.5-47.5V405.537a47.607,47.607,0,0,1,47.55-47.55h28.587a47.607,47.607,0,0,1,47.55,47.55v66.418ZM373.324,347.7H344.737A57.885,57.885,0,0,0,286.9,405.537V472a7.678,7.678,0,0,0,.047,1.043,57.665,57.665,0,0,0,57.79,56.747h28.587a57.885,57.885,0,0,0,57.837-57.837V405.537A57.885,57.885,0,0,0,373.324,347.7" transform="translate(-279.03 -340.589)" fill="rgba(23,37,84,0.05)"/>
        </g>
        <g id="logo-final-jethouse-15" data-name="logo-final-jethouse" transform="translate(772)">
          <path id="Path_1-15" data-name="Path 1" d="M427.522,468.842c0,32.137-27.066,58.292-60.305,58.292H333.645a60.551,60.551,0,0,1-51.093-27.39,57.084,57.084,0,0,1-6.221-12.817,55.993,55.993,0,0,1-2.991-18.086V393.65c0-32.137,27.066-58.292,60.305-58.292h33.572c33.239,0,60.305,26.156,60.305,58.292ZM367.216,332.7H333.645c-34.949,0-63.344,27.342-63.344,60.95v76.283a57.661,57.661,0,0,0,2.707,16.614c8.072,25.443,33,43.244,60.638,43.244h33.572c34.949,0,63.345-27.342,63.345-60.95V393.65c0-33.608-28.443-60.95-63.345-60.95" transform="translate(-270.3 -332.7)" fill="rgba(23,37,84,0.05)"/>
          <path id="Path_2-15" data-name="Path 2" d="M486.825,446.627h-7.538V369.779a48.329,48.329,0,0,0-5.879-.379H469V530.917h4.409a47.705,47.705,0,0,0,5.879-.379V456.914H516.6V446.627Z" transform="translate(-374.802 -352.001)" fill="rgba(23,37,84,0.05)"/>
          <path id="Path_3-15" data-name="Path 3" d="M372.683,394.1c0-1-.047-18.252-.142-24.7h-9.2a8.4,8.4,0,0,0-1.09.047c.095,6.637.19,24.415.19,25.742v66.418A47.616,47.616,0,0,1,323,508.446c0,.047.047.047.047.095a47.51,47.51,0,0,0,7.111,8.818,57.92,57.92,0,0,0,42.572-55.751V395.142c0-.332-.047-.664-.047-1.043" transform="translate(-298.016 -352.001)" fill="rgba(23,37,84,0.05)"/>
          <path id="Path_4-15" data-name="Path 4" d="M420.873,471.955a47.607,47.607,0,0,1-47.55,47.55H344.737a47.475,47.475,0,0,1-47.5-47.5V405.537a47.607,47.607,0,0,1,47.55-47.55h28.587a47.607,47.607,0,0,1,47.55,47.55v66.418ZM373.324,347.7H344.737A57.885,57.885,0,0,0,286.9,405.537V472a7.678,7.678,0,0,0,.047,1.043,57.665,57.665,0,0,0,57.79,56.747h28.587a57.885,57.885,0,0,0,57.837-57.837V405.537A57.885,57.885,0,0,0,373.324,347.7" transform="translate(-279.03 -340.589)" fill="rgba(23,37,84,0.05)"/>
        </g>
        <g id="logo-final-jethouse-16" data-name="logo-final-jethouse" transform="translate(965)">
          <path id="Path_1-16" data-name="Path 1" d="M427.522,468.842c0,32.137-27.066,58.292-60.305,58.292H333.645a60.551,60.551,0,0,1-51.093-27.39,57.084,57.084,0,0,1-6.221-12.817,55.993,55.993,0,0,1-2.991-18.086V393.65c0-32.137,27.066-58.292,60.305-58.292h33.572c33.239,0,60.305,26.156,60.305,58.292ZM367.216,332.7H333.645c-34.949,0-63.344,27.342-63.344,60.95v76.283a57.661,57.661,0,0,0,2.707,16.614c8.072,25.443,33,43.244,60.638,43.244h33.572c34.949,0,63.345-27.342,63.345-60.95V393.65c0-33.608-28.443-60.95-63.345-60.95" transform="translate(-270.3 -332.7)" fill="rgba(23,37,84,0.05)"/>
          <path id="Path_2-16" data-name="Path 2" d="M486.825,446.627h-7.538V369.779a48.329,48.329,0,0,0-5.879-.379H469V530.917h4.409a47.705,47.705,0,0,0,5.879-.379V456.914H516.6V446.627Z" transform="translate(-374.802 -352.001)" fill="rgba(23,37,84,0.05)"/>
          <path id="Path_3-16" data-name="Path 3" d="M372.683,394.1c0-1-.047-18.252-.142-24.7h-9.2a8.4,8.4,0,0,0-1.09.047c.095,6.637.19,24.415.19,25.742v66.418A47.616,47.616,0,0,1,323,508.446c0,.047.047.047.047.095a47.51,47.51,0,0,0,7.111,8.818,57.92,57.92,0,0,0,42.572-55.751V395.142c0-.332-.047-.664-.047-1.043" transform="translate(-298.016 -352.001)" fill="rgba(23,37,84,0.05)"/>
          <path id="Path_4-16" data-name="Path 4" d="M420.873,471.955a47.607,47.607,0,0,1-47.55,47.55H344.737a47.475,47.475,0,0,1-47.5-47.5V405.537a47.607,47.607,0,0,1,47.55-47.55h28.587a47.607,47.607,0,0,1,47.55,47.55v66.418ZM373.324,347.7H344.737A57.885,57.885,0,0,0,286.9,405.537V472a7.678,7.678,0,0,0,.047,1.043,57.665,57.665,0,0,0,57.79,56.747h28.587a57.885,57.885,0,0,0,57.837-57.837V405.537A57.885,57.885,0,0,0,373.324,347.7" transform="translate(-279.03 -340.589)" fill="rgba(23,37,84,0.05)"/>
        </g>
        <g id="logo-final-jethouse-17" data-name="logo-final-jethouse" transform="translate(1158)">
          <path id="Path_1-17" data-name="Path 1" d="M427.522,468.842c0,32.137-27.066,58.292-60.305,58.292H333.645a60.551,60.551,0,0,1-51.093-27.39,57.084,57.084,0,0,1-6.221-12.817,55.993,55.993,0,0,1-2.991-18.086V393.65c0-32.137,27.066-58.292,60.305-58.292h33.572c33.239,0,60.305,26.156,60.305,58.292ZM367.216,332.7H333.645c-34.949,0-63.344,27.342-63.344,60.95v76.283a57.661,57.661,0,0,0,2.707,16.614c8.072,25.443,33,43.244,60.638,43.244h33.572c34.949,0,63.345-27.342,63.345-60.95V393.65c0-33.608-28.443-60.95-63.345-60.95" transform="translate(-270.3 -332.7)" fill="rgba(23,37,84,0.05)"/>
          <path id="Path_2-17" data-name="Path 2" d="M486.825,446.627h-7.538V369.779a48.329,48.329,0,0,0-5.879-.379H469V530.917h4.409a47.705,47.705,0,0,0,5.879-.379V456.914H516.6V446.627Z" transform="translate(-374.802 -352.001)" fill="rgba(23,37,84,0.05)"/>
          <path id="Path_3-17" data-name="Path 3" d="M372.683,394.1c0-1-.047-18.252-.142-24.7h-9.2a8.4,8.4,0,0,0-1.09.047c.095,6.637.19,24.415.19,25.742v66.418A47.616,47.616,0,0,1,323,508.446c0,.047.047.047.047.095a47.51,47.51,0,0,0,7.111,8.818,57.92,57.92,0,0,0,42.572-55.751V395.142c0-.332-.047-.664-.047-1.043" transform="translate(-298.016 -352.001)" fill="rgba(23,37,84,0.05)"/>
          <path id="Path_4-17" data-name="Path 4" d="M420.873,471.955a47.607,47.607,0,0,1-47.55,47.55H344.737a47.475,47.475,0,0,1-47.5-47.5V405.537a47.607,47.607,0,0,1,47.55-47.55h28.587a47.607,47.607,0,0,1,47.55,47.55v66.418ZM373.324,347.7H344.737A57.885,57.885,0,0,0,286.9,405.537V472a7.678,7.678,0,0,0,.047,1.043,57.665,57.665,0,0,0,57.79,56.747h28.587a57.885,57.885,0,0,0,57.837-57.837V405.537A57.885,57.885,0,0,0,373.324,347.7" transform="translate(-279.03 -340.589)" fill="rgba(23,37,84,0.05)"/>
        </g>
        <g id="logo-final-jethouse-18" data-name="logo-final-jethouse" transform="translate(1351)">
          <path id="Path_1-18" data-name="Path 1" d="M427.522,468.842c0,32.137-27.066,58.292-60.305,58.292H333.645a60.551,60.551,0,0,1-51.093-27.39,57.084,57.084,0,0,1-6.221-12.817,55.993,55.993,0,0,1-2.991-18.086V393.65c0-32.137,27.066-58.292,60.305-58.292h33.572c33.239,0,60.305,26.156,60.305,58.292ZM367.216,332.7H333.645c-34.949,0-63.344,27.342-63.344,60.95v76.283a57.661,57.661,0,0,0,2.707,16.614c8.072,25.443,33,43.244,60.638,43.244h33.572c34.949,0,63.345-27.342,63.345-60.95V393.65c0-33.608-28.443-60.95-63.345-60.95" transform="translate(-270.3 -332.7)" fill="rgba(23,37,84,0.05)"/>
          <path id="Path_2-18" data-name="Path 2" d="M486.825,446.627h-7.538V369.779a48.329,48.329,0,0,0-5.879-.379H469V530.917h4.409a47.705,47.705,0,0,0,5.879-.379V456.914H516.6V446.627Z" transform="translate(-374.802 -352.001)" fill="rgba(23,37,84,0.05)"/>
          <path id="Path_3-18" data-name="Path 3" d="M372.683,394.1c0-1-.047-18.252-.142-24.7h-9.2a8.4,8.4,0,0,0-1.09.047c.095,6.637.19,24.415.19,25.742v66.418A47.616,47.616,0,0,1,323,508.446c0,.047.047.047.047.095a47.51,47.51,0,0,0,7.111,8.818,57.92,57.92,0,0,0,42.572-55.751V395.142c0-.332-.047-.664-.047-1.043" transform="translate(-298.016 -352.001)" fill="rgba(23,37,84,0.05)"/>
          <path id="Path_4-18" data-name="Path 4" d="M420.873,471.955a47.607,47.607,0,0,1-47.55,47.55H344.737a47.475,47.475,0,0,1-47.5-47.5V405.537a47.607,47.607,0,0,1,47.55-47.55h28.587a47.607,47.607,0,0,1,47.55,47.55v66.418ZM373.324,347.7H344.737A57.885,57.885,0,0,0,286.9,405.537V472a7.678,7.678,0,0,0,.047,1.043,57.665,57.665,0,0,0,57.79,56.747h28.587a57.885,57.885,0,0,0,57.837-57.837V405.537A57.885,57.885,0,0,0,373.324,347.7" transform="translate(-279.03 -340.589)" fill="rgba(23,37,84,0.05)"/>
        </g>
        <g id="logo-final-jethouse-19" data-name="logo-final-jethouse" transform="translate(1273.7 -332.7)">
          <path id="Path_1-19" data-name="Path 1" d="M427.266,468.664c0,32.095-27.022,58.216-60.207,58.216H333.541a60.447,60.447,0,0,1-51.01-27.354,57.018,57.018,0,0,1-6.21-12.8,55.936,55.936,0,0,1-2.987-18.062V393.571c0-32.095,27.022-58.216,60.207-58.216h33.517c33.185,0,60.207,26.121,60.207,58.216ZM367.059,332.7H333.541c-34.892,0-63.241,27.307-63.241,60.871v76.184a57.6,57.6,0,0,0,2.7,16.593c8.059,25.41,32.948,43.188,60.539,43.188h33.517c34.892,0,63.241-27.307,63.241-60.871V393.571c0-33.564-28.4-60.871-63.242-60.871" fill="rgba(23,37,84,0.05)"/>
          <path id="Path_2-19" data-name="Path 2" d="M486.825,446.627h-7.538V369.779a48.329,48.329,0,0,0-5.879-.379H469V530.917h4.409a47.705,47.705,0,0,0,5.879-.379V456.914H516.6V446.627Z" transform="translate(-104.501 -19.301)" fill="rgba(23,37,84,0.05)"/>
          <path id="Path_3-19" data-name="Path 3" d="M372.683,394.1c0-1-.047-18.252-.142-24.7h-9.2a8.4,8.4,0,0,0-1.09.047c.095,6.637.19,24.415.19,25.742v66.418A47.616,47.616,0,0,1,323,508.446c0,.047.047.047.047.095a47.51,47.51,0,0,0,7.111,8.818,57.92,57.92,0,0,0,42.572-55.751V395.142c0-.332-.047-.664-.047-1.043" transform="translate(-27.716 -19.301)" fill="rgba(23,37,84,0.05)"/>
          <path id="Path_4-19" data-name="Path 4" d="M420.873,471.955a47.607,47.607,0,0,1-47.55,47.55H344.737a47.475,47.475,0,0,1-47.5-47.5V405.537a47.607,47.607,0,0,1,47.55-47.55h28.587a47.607,47.607,0,0,1,47.55,47.55v66.418ZM373.324,347.7H344.737A57.885,57.885,0,0,0,286.9,405.537V472a7.678,7.678,0,0,0,.047,1.043,57.665,57.665,0,0,0,57.79,56.747h28.587a57.885,57.885,0,0,0,57.837-57.837V405.537A57.885,57.885,0,0,0,373.324,347.7" transform="translate(-8.73 -7.889)" fill="rgba(23,37,84,0.05)"/>
        </g>
        <g id="logo-final-jethouse-20" data-name="logo-final-jethouse" transform="translate(1466.439 -332.7)">
          <path id="Path_1-20" data-name="Path 1" d="M427.266,468.664c0,32.095-27.022,58.216-60.207,58.216H333.541a60.447,60.447,0,0,1-51.01-27.354,57.018,57.018,0,0,1-6.21-12.8,55.936,55.936,0,0,1-2.987-18.062V393.571c0-32.095,27.022-58.216,60.207-58.216h33.517c33.185,0,60.207,26.121,60.207,58.216ZM367.059,332.7H333.541c-34.892,0-63.241,27.307-63.241,60.871v76.184a57.6,57.6,0,0,0,2.7,16.593c8.059,25.41,32.948,43.188,60.539,43.188h33.517c34.892,0,63.241-27.307,63.241-60.871V393.571c0-33.564-28.4-60.871-63.242-60.871" fill="rgba(23,37,84,0.05)"/>
          <path id="Path_2-20" data-name="Path 2" d="M486.825,446.627h-7.538V369.779a48.329,48.329,0,0,0-5.879-.379H469V530.917h4.409a47.705,47.705,0,0,0,5.879-.379V456.914H516.6V446.627Z" transform="translate(-104.501 -19.301)" fill="rgba(23,37,84,0.05)"/>
          <path id="Path_3-20" data-name="Path 3" d="M372.683,394.1c0-1-.047-18.252-.142-24.7h-9.2a8.4,8.4,0,0,0-1.09.047c.095,6.637.19,24.415.19,25.742v66.418A47.616,47.616,0,0,1,323,508.446c0,.047.047.047.047.095a47.51,47.51,0,0,0,7.111,8.818,57.92,57.92,0,0,0,42.572-55.751V395.142c0-.332-.047-.664-.047-1.043" transform="translate(-27.716 -19.301)" fill="rgba(23,37,84,0.05)"/>
          <path id="Path_4-20" data-name="Path 4" d="M420.873,471.955a47.607,47.607,0,0,1-47.55,47.55H344.737a47.475,47.475,0,0,1-47.5-47.5V405.537a47.607,47.607,0,0,1,47.55-47.55h28.587a47.607,47.607,0,0,1,47.55,47.55v66.418ZM373.324,347.7H344.737A57.885,57.885,0,0,0,286.9,405.537V472a7.678,7.678,0,0,0,.047,1.043,57.665,57.665,0,0,0,57.79,56.747h28.587a57.885,57.885,0,0,0,57.837-57.837V405.537A57.885,57.885,0,0,0,373.324,347.7" transform="translate(-8.73 -7.889)" fill="rgba(23,37,84,0.05)"/>
        </g>
        <g id="logo-final-jethouse-21" data-name="logo-final-jethouse" transform="translate(-193)">
          <path id="Path_1-21" data-name="Path 1" d="M427.522,468.842c0,32.137-27.066,58.292-60.305,58.292H333.645a60.551,60.551,0,0,1-51.093-27.39,57.084,57.084,0,0,1-6.221-12.817,55.993,55.993,0,0,1-2.991-18.086V393.65c0-32.137,27.066-58.292,60.305-58.292h33.572c33.239,0,60.305,26.156,60.305,58.292ZM367.216,332.7H333.645c-34.949,0-63.344,27.342-63.344,60.95v76.283a57.661,57.661,0,0,0,2.707,16.614c8.072,25.443,33,43.244,60.638,43.244h33.572c34.949,0,63.345-27.342,63.345-60.95V393.65c0-33.608-28.443-60.95-63.345-60.95" transform="translate(-270.3 -332.7)" fill="rgba(23,37,84,0.05)"/>
          <path id="Path_2-21" data-name="Path 2" d="M486.825,446.627h-7.538V369.779a48.329,48.329,0,0,0-5.879-.379H469V530.917h4.409a47.705,47.705,0,0,0,5.879-.379V456.914H516.6V446.627Z" transform="translate(-374.802 -352.001)" fill="rgba(23,37,84,0.05)"/>
          <path id="Path_3-21" data-name="Path 3" d="M372.683,394.1c0-1-.047-18.252-.142-24.7h-9.2a8.4,8.4,0,0,0-1.09.047c.095,6.637.19,24.415.19,25.742v66.418A47.616,47.616,0,0,1,323,508.446c0,.047.047.047.047.095a47.51,47.51,0,0,0,7.111,8.818,57.92,57.92,0,0,0,42.572-55.751V395.142c0-.332-.047-.664-.047-1.043" transform="translate(-298.016 -352.001)" fill="rgba(23,37,84,0.05)"/>
          <path id="Path_4-21" data-name="Path 4" d="M420.873,471.955a47.607,47.607,0,0,1-47.55,47.55H344.737a47.475,47.475,0,0,1-47.5-47.5V405.537a47.607,47.607,0,0,1,47.55-47.55h28.587a47.607,47.607,0,0,1,47.55,47.55v66.418ZM373.324,347.7H344.737A57.885,57.885,0,0,0,286.9,405.537V472a7.678,7.678,0,0,0,.047,1.043,57.665,57.665,0,0,0,57.79,56.747h28.587a57.885,57.885,0,0,0,57.837-57.837V405.537A57.885,57.885,0,0,0,373.324,347.7" transform="translate(-279.03 -340.589)" fill="rgba(23,37,84,0.05)"/>
        </g>
      </g>
    </g>
  </g>
</svg>
