<?xml version="1.0" encoding="utf-8"?>
<!-- Generator: Adobe Illustrator 28.2.0, SVG Export Plug-In . SVG Version: 6.00 Build 0)  -->
<svg version="1.1" id="Layer_1" xmlns="http://www.w3.org/2000/svg" xmlns:xlink="http://www.w3.org/1999/xlink" x="0px" y="0px"
	 viewBox="0 0 1920 1080" style="enable-background:new 0 0 1920 1080;" xml:space="preserve">
<style type="text/css">
	.st0{fill:#878787;}
	.st1{fill:#1C305C;}
</style>
<path class="st0" d="M601.4,619.5c0,67.7-57,122.8-127,122.8h-70.7c-43.9,0-84.2-21.6-107.6-57.7c-5.5-8.5-9.9-17.5-13.1-27
	c-4.2-12.3-6.3-25.2-6.3-38.1V461.1c0-67.7,57-122.8,127-122.8h70.7c70,0,127,55.1,127,122.8V619.5z M474.4,332.7h-70.7
	c-73.6,0-133.4,57.6-133.4,128.4v158.4c0,0.4,0,0.8,0,1.1c0,0.4,0,0.8,0,1.2c0.2,12,2.1,23.7,5.7,35c17,53.6,69.5,91.1,127.7,91.1
	h70.7c73.6,0,133.4-57.6,133.4-128.4V461.1C607.8,390.3,547.9,332.7,474.4,332.7"/>
<path class="st0" d="M506.6,532.3h-15.4h-0.5V370.2c-4.1-0.5-8.2-0.8-12.4-0.8h-9.3v162.9V554v156.1h9.3c4.2,0,8.4-0.3,12.4-0.8V554
	h0.5h15.4h62.8v-21.7H506.6z"/>
<path class="st1" d="M427.8,421.5c0-2.1-0.1-38.5-0.3-52.1h-19.4c-0.8,0-1.5,0-2.3,0.1c0.2,14,0.4,51.5,0.4,54.3v140.1
	c0,49.5-36,90.6-83.2,98.8c0,0.1,0.1,0.1,0.1,0.2c4.3,6.8,9.3,13.1,15,18.6c51.7-14.2,89.8-61.5,89.8-117.6V554v-21.7V423.7
	C427.9,423,427.8,422.3,427.8,421.5"/>
<path class="st1" d="M569.5,609.8c0,55.3-45,100.3-100.3,100.3h-60.3c-35.8,0-67.3-18.9-85-47.2c-4.3-6.8-7.7-14.2-10.3-22
	c-3.2-9.8-4.9-20.2-4.9-31v-84.7V506v-36.3c0-55.3,45-100.3,100.3-100.3h60.3c55.3,0,100.3,45,100.3,100.3V609.8z M469.2,347.7
	h-60.3c-67.3,0-122,54.7-122,122v52.9v28.3v59c0,0.7,0,1.5,0.1,2.2c0.2,11.6,2,22.8,5.2,33.3c15.2,50,61.8,86.4,116.7,86.4h60.3
	c67.3,0,122-54.7,122-122V469.7C591.2,402.4,536.5,347.7,469.2,347.7"/>
<path class="st1" d="M676.4,431.7c2.9-0.4,5.1-0.5,6.7-0.5c11.1,0,16.7,5.7,16.7,17v145.3c0,8.4-0.4,16.3-1.1,23.7
	c-0.9,8.6-3.3,16.2-7.1,22.7c-3.9,6.5-8.8,11.5-14.9,14.9c-6.1,3.4-13.2,5.1-21.3,5.1c-4.8,0-8.4-1-10.8-3.1
	c-2.3-2.1-3.5-5.4-3.5-10.1c0-3.1,0.1-5.2,0.3-6.5c12.9,0,22-2.6,27.2-7.7c5.2-5.1,7.8-13.9,7.8-26.2V431.7z"/>
<path class="st1" d="M820.4,535.8c0-23-10-34.4-29.9-34.4c-9.5,0-17.2,3.1-23.1,9.3c-5.9,6.2-9.2,14.6-10,25.2H820.4z M757.4,553.1
	c0.5,14,4.2,24.8,10.9,32.3c6.7,7.5,16.4,11.3,28.9,11.3c14.9,0,26.7-5.1,35.5-15.3c2.2,2.7,3.9,5.4,5.4,8.2c1.4,2.8,2.2,5,2.2,6.6
	c0,3.1-2,6.1-5.9,9.1c-9.7,7.2-22.8,10.8-39.3,10.8c-19.7,0-34.9-5.8-45.5-17.5c-10.6-11.7-15.9-28.6-15.9-50.9
	c0-13.6,2.5-25.3,7.4-35c4.9-9.7,11.8-17.1,20.7-22.3c8.9-5.2,18.8-7.8,29.7-7.8c10.9,0,20.3,2.3,28,6.9
	c7.7,4.6,13.6,11.1,17.6,19.5c4,8.4,6.1,18.1,6.1,29.1c0,7-0.3,12-0.8,15.1H757.4z"/>
<path class="st1" d="M874.2,446.8c1.6-0.2,3.2-0.3,4.8-0.3c12,0,18,6.1,18,18.3v20.7h40.1v19.4h-40.1v69.4
	c0,14.7,5.8,22.1,17.5,22.1c3,0,6.1-0.6,9-1.9c3-1.3,5.7-2.9,8.2-4.8c2.5-2,4.2-3.6,5.1-4.8c5.2,6.5,7.8,11.5,7.8,15.1
	c0,2.5-1.7,5.1-5.1,7.8c-3.4,2.7-7.6,4.8-12.5,6.2c-4.9,1.4-10.3,2.2-16,2.2c-17.9,0-29.3-6.7-34.2-20.2c-1.8-5-2.7-12.7-2.7-23.1
	V446.8z"/>
<path class="st1" d="M971.6,431.7c2.9-0.4,5.1-0.5,6.7-0.5c11.1,0,16.7,5.7,16.7,17v60h85.6v-76.4c2.9-0.4,5.1-0.5,6.7-0.5
	c11.1,0,16.7,5.7,16.7,17V612h-23.4v-83.4H995V612h-23.4V431.7z"/>
<path class="st1" d="M1232.1,548.5c0-30.7-11.6-46-34.7-46c-11.5,0-20.3,4.1-26.4,12.2c-6.1,8.2-9.1,19.4-9.1,33.8
	c0,15.3,3,27.1,9,35.5c6,8.4,14.7,12.6,26,12.6c11.7,0,20.5-4.1,26.4-12.2C1229.2,576.3,1232.1,564.3,1232.1,548.5 M1256.4,548.2
	c0,13.8-2.4,25.9-7.1,36.2c-4.8,10.3-11.6,18.2-20.5,23.5c-8.9,5.4-19.5,8.1-31.9,8.1c-18.8,0-33.4-5.9-43.6-17.6
	c-10.2-11.7-15.3-28.2-15.3-49.4c0-13.3,2.6-25,7.7-35.3c5.1-10.2,12.2-18,21.1-23.3c9-5.3,19.4-7.9,31.2-7.9
	c18.7,0,33.1,5.8,43.2,17.5C1251.3,511.7,1256.4,527.8,1256.4,548.2"/>
<path class="st1" d="M1288.1,484.2c1.6-0.2,3.2-0.3,4.8-0.3c12,0,18,6.1,18,18.3v62.7c0,7.9,0.5,13.7,1.6,17.5
	c1.1,3.8,3,6.6,5.9,8.6c2.5,1.8,5.2,3.1,8.2,3.9c3,0.8,6.8,1.2,11.4,1.2c5.9,0,11.3-1,16.3-3.1c4.9-2.1,8.9-4.6,12-7.7
	c3-3,4.6-5.9,4.6-8.6v-92.6c1.6-0.2,3.2-0.3,4.8-0.3c12,0,18,6.1,18,18.3V612H1371v-11.8c-9.1,10.6-22.5,15.9-40.1,15.9
	c-7.2,0-13.5-0.9-19-2.7c-5.5-1.8-10-4.5-13.5-8.2c-3.5-3.7-6.1-8.4-7.8-14.3c-1.7-5.8-2.6-14.5-2.6-26V484.2z"/>
<path class="st1" d="M1502.9,515.1c-3.4-4.1-8.1-7.5-14-10.1c-5.9-2.6-11.9-3.9-18-3.9c-7.4,0-13.2,1.4-17.5,4.2
	c-4.3,2.8-6.5,6.8-6.5,12c0,2.9,0.8,5.4,2.3,7.7c1.5,2.2,4.1,4.2,7.7,5.9c3.6,1.7,9.1,3.5,16.7,5.2c10.4,2.5,18.5,5.5,24.4,8.9
	c5.8,3.4,10.1,7.7,12.9,12.8c2.8,5.1,4.2,11.2,4.2,18.2c0,12-4.6,21.7-13.7,28.9c-9.2,7.3-21,10.9-35.5,10.9
	c-12,0-21.9-1.7-29.6-5.1c-8.1-3.2-12.1-7-12.1-11.3c0-1.8,0.4-3.8,1.3-6.1c0.9-2.2,2.7-5.5,5.4-9.8c5,4.3,10.7,7.7,17,10.1
	c6.3,2.4,12.6,3.6,18.8,3.6c8.3,0,14.6-1.7,19.1-5c4.5-3.3,6.7-8.1,6.7-14.4c0-5.6-2-10-5.9-13.3c-3.9-3.3-11.3-6.1-22.1-8.5
	c-14.2-3-24.4-7.6-30.5-13.6c-6.2-6-9.3-13.9-9.3-23.8c0-10.9,4.3-19.7,12.9-26.2c8.6-6.5,19.6-9.8,32.8-9.8c6.5,0,12.6,0.7,18.3,2
	c5.7,1.3,10.4,3.1,14,5.2c6.1,3.4,9.2,6.9,9.2,10.5c0,3.8-1.7,8.6-5.1,14.5L1502.9,515.1z"/>
<path class="st1" d="M1626.1,535.8c0-23-10-34.4-29.9-34.4c-9.5,0-17.2,3.1-23.1,9.3c-5.9,6.2-9.2,14.6-10,25.2H1626.1z
	 M1563.1,553.1c0.5,14,4.2,24.8,10.9,32.3c6.7,7.5,16.4,11.3,28.9,11.3c14.9,0,26.7-5.1,35.5-15.3c2.2,2.7,3.9,5.4,5.4,8.2
	c1.4,2.8,2.2,5,2.2,6.6c0,3.1-2,6.1-5.9,9.1c-9.7,7.2-22.8,10.8-39.3,10.8c-19.7,0-34.9-5.8-45.5-17.5
	c-10.6-11.7-15.9-28.6-15.9-50.9c0-13.6,2.5-25.3,7.4-35c4.9-9.7,11.8-17.1,20.7-22.3c8.9-5.2,18.8-7.8,29.7-7.8
	c10.9,0,20.3,2.3,28,6.9c7.7,4.6,13.6,11.1,17.6,19.5c4,8.4,6.1,18.1,6.1,29.1c0,7-0.3,12-0.8,15.1H1563.1z"/>
<g>
</g>
<g>
</g>
<g>
</g>
<g>
</g>
<g>
</g>
<g>
</g>
<g>
</g>
<g>
</g>
<g>
</g>
<g>
</g>
<g>
</g>
<g>
</g>
<g>
</g>
<g>
</g>
<g>
</g>
</svg>
